<svg width="21" height="21" viewBox="0 0 21 21" fill="none" xmlns="http://www.w3.org/2000/svg">
<path d="M12.3105 14.0176L8.74054 10.5263L12.2318 6.98255L11.4705 6.24755L7.27054 10.5526L11.5755 14.7788L12.3105 14.0176Z" fill="black"/>
<path d="M10.5 21C16.3012 21 21 16.3012 21 10.5C21 4.69874 16.3012 -1.90735e-05 10.5 -1.90735e-05C4.69874 -1.90735e-05 -1.90735e-05 4.69874 -1.90735e-05 10.5C-1.90735e-05 16.3012 4.69874 21 10.5 21ZM10.5 1.04998C15.7237 1.04998 19.95 5.27624 19.95 10.5C19.95 15.7237 15.7237 19.95 10.5 19.95C5.27624 19.95 1.04998 15.7237 1.04998 10.5C1.04998 5.27624 5.27624 1.04998 10.5 1.04998Z" fill="black"/>
</svg>
