<svg width="7" height="7" viewBox="0 0 7 7" fill="none" xmlns="http://www.w3.org/2000/svg">
<path fill-rule="evenodd" clip-rule="evenodd" d="M0 6.26209V0H6.5752V6.26209H0ZM6.26209 1.87863H0.313105V5.94899H6.26209V1.87863ZM1.25242 3.75725H0.626209V3.13105H1.25242V3.75725ZM1.25242 4.69657H0.626209V4.07036H1.25242V4.69657ZM1.25242 5.63588H0.626209V5.00967H1.25242V5.63588ZM2.19173 2.81794H1.56552V2.19173H2.19173V2.81794ZM2.19173 3.75725H1.56552V3.13105H2.19173V3.75725ZM2.19173 4.69657H1.56552V4.07036H2.19173V4.69657ZM2.19173 5.63588H1.56552V5.00967H2.19173V5.63588ZM3.13105 2.81794H2.50484V2.19173H3.13105V2.81794ZM3.13105 3.75725H2.50484V3.13105H3.13105V3.75725ZM3.13105 4.69657H2.50484V4.07036H3.13105V4.69657ZM3.13105 5.63588H2.50484V5.00967H3.13105V5.63588ZM4.07036 2.81794H3.44415V2.19173H4.07036V2.81794ZM4.07036 3.75725H3.44415V3.13105H4.07036V3.75725ZM4.07036 4.69657H3.44415V4.07036H4.07036V4.69657ZM4.07036 5.63588H3.44415V5.00967H4.07036V5.63588ZM5.00967 2.81794H4.38346V2.19173H5.00967V2.81794ZM5.00967 3.75725H4.38346V3.13105H5.00967V3.75725ZM5.00967 4.69657H4.38346V4.07036H5.00967V4.69657ZM5.94899 2.81794H5.32278V2.19173H5.94899V2.81794ZM5.94899 3.75725H5.32278V3.13105H5.94899V3.75725ZM5.94899 4.69657H5.32278V4.07036H5.94899V4.69657Z" fill="#062B8A"/>
</svg>
