<svg width="10" height="10" viewBox="0 0 10 10" fill="none" xmlns="http://www.w3.org/2000/svg">
<path d="M9 1.33335H1C0.734784 1.33335 0.48043 1.4387 0.292893 1.62624C0.105357 1.81378 0 2.06813 0 2.33335V9.00001C0 9.26523 0.105357 9.51958 0.292893 9.70712C0.48043 9.89466 0.734784 10 1 10H9C9.26522 10 9.51957 9.89466 9.70711 9.70712C9.89464 9.51958 10 9.26523 10 9.00001V2.33335C10 2.06813 9.89464 1.81378 9.70711 1.62624C9.51957 1.4387 9.26522 1.33335 9 1.33335ZM1 2.00001H9C9.08841 2.00001 9.17319 2.03513 9.2357 2.09765C9.29821 2.16016 9.33333 2.24494 9.33333 2.33335V3.00001H0.666667V2.33335C0.666667 2.24494 0.701786 2.16016 0.764298 2.09765C0.82681 2.03513 0.911595 2.00001 1 2.00001ZM9 9.33335H1C0.911595 9.33335 0.82681 9.29823 0.764298 9.23572C0.701786 9.1732 0.666667 9.08842 0.666667 9.00001V3.66668H9.33333V9.00001C9.33333 9.08842 9.29821 9.1732 9.2357 9.23572C9.17319 9.29823 9.08841 9.33335 9 9.33335Z" fill="#00164E"/>
<path d="M2.66536 0.666667H3.9987C4.0871 0.666667 4.17189 0.631548 4.2344 0.569036C4.29691 0.506523 4.33203 0.421739 4.33203 0.333333C4.33203 0.244928 4.29691 0.160143 4.2344 0.0976311C4.17189 0.0351189 4.0871 0 3.9987 0H2.66536C2.57696 0 2.49217 0.0351189 2.42966 0.0976311C2.36715 0.160143 2.33203 0.244928 2.33203 0.333333C2.33203 0.421739 2.36715 0.506523 2.42966 0.569036C2.49217 0.631548 2.57696 0.666667 2.66536 0.666667Z" fill="#00164E"/>
<path d="M6.0013 0.666667H7.33464C7.42304 0.666667 7.50783 0.631548 7.57034 0.569036C7.63285 0.506523 7.66797 0.421739 7.66797 0.333333C7.66797 0.244928 7.63285 0.160143 7.57034 0.0976311C7.50783 0.0351189 7.42304 0 7.33464 0H6.0013C5.9129 0 5.82811 0.0351189 5.7656 0.0976311C5.70309 0.160143 5.66797 0.244928 5.66797 0.333333C5.66797 0.421739 5.70309 0.506523 5.7656 0.569036C5.82811 0.631548 5.9129 0.666667 6.0013 0.666667Z" fill="#00164E"/>
<path d="M5.0013 5.66667C5.1854 5.66667 5.33464 5.51743 5.33464 5.33333C5.33464 5.14924 5.1854 5 5.0013 5C4.81721 5 4.66797 5.14924 4.66797 5.33333C4.66797 5.51743 4.81721 5.66667 5.0013 5.66667Z" fill="#00164E"/>
<path d="M2.66536 5.66667C2.84946 5.66667 2.9987 5.51743 2.9987 5.33333C2.9987 5.14924 2.84946 5 2.66536 5C2.48127 5 2.33203 5.14924 2.33203 5.33333C2.33203 5.51743 2.48127 5.66667 2.66536 5.66667Z" fill="#00164E"/>
<path d="M7.33333 5.66667C7.51743 5.66667 7.66667 5.51743 7.66667 5.33333C7.66667 5.14924 7.51743 5 7.33333 5C7.14924 5 7 5.14924 7 5.33333C7 5.51743 7.14924 5.66667 7.33333 5.66667Z" fill="#00164E"/>
<path d="M5.0013 8.00001C5.1854 8.00001 5.33464 7.85077 5.33464 7.66667C5.33464 7.48258 5.1854 7.33334 5.0013 7.33334C4.81721 7.33334 4.66797 7.48258 4.66797 7.66667C4.66797 7.85077 4.81721 8.00001 5.0013 8.00001Z" fill="#00164E"/>
<path d="M2.66536 8.00001C2.84946 8.00001 2.9987 7.85077 2.9987 7.66667C2.9987 7.48258 2.84946 7.33334 2.66536 7.33334C2.48127 7.33334 2.33203 7.48258 2.33203 7.66667C2.33203 7.85077 2.48127 8.00001 2.66536 8.00001Z" fill="#00164E"/>
<path d="M7.33333 8.00001C7.51743 8.00001 7.66667 7.85077 7.66667 7.66667C7.66667 7.48258 7.51743 7.33334 7.33333 7.33334C7.14924 7.33334 7 7.48258 7 7.66667C7 7.85077 7.14924 8.00001 7.33333 8.00001Z" fill="#00164E"/>
</svg>
