<svg width="6" height="6" viewBox="0 0 6 6" fill="none" xmlns="http://www.w3.org/2000/svg">
<path d="M5.4 0.800293H0.6C0.44087 0.800293 0.288258 0.863507 0.175736 0.976029C0.0632141 1.08855 0 1.24116 0 1.40029V5.40029C0 5.55942 0.0632141 5.71204 0.175736 5.82456C0.288258 5.93708 0.44087 6.00029 0.6 6.00029H5.4C5.55913 6.00029 5.71174 5.93708 5.82426 5.82456C5.93679 5.71204 6 5.55942 6 5.40029V1.40029C6 1.24116 5.93679 1.08855 5.82426 0.976029C5.71174 0.863507 5.55913 0.800293 5.4 0.800293ZM0.6 1.20029H5.4C5.45304 1.20029 5.50391 1.22136 5.54142 1.25887C5.57893 1.29638 5.6 1.34725 5.6 1.40029V1.80029H0.4V1.40029C0.4 1.34725 0.421071 1.29638 0.458579 1.25887C0.496086 1.22136 0.546957 1.20029 0.6 1.20029ZM5.4 5.60029H0.6C0.546957 5.60029 0.496086 5.57922 0.458579 5.54171C0.421071 5.50421 0.4 5.45334 0.4 5.40029V2.20029H5.6V5.40029C5.6 5.45334 5.57893 5.50421 5.54142 5.54171C5.50391 5.57922 5.45304 5.60029 5.4 5.60029Z" fill="#FFBA03"/>
<path d="M1.59844 0.4H2.39844C2.45148 0.4 2.50235 0.378929 2.53986 0.341421C2.57737 0.303914 2.59844 0.253043 2.59844 0.2C2.59844 0.146957 2.57737 0.0960859 2.53986 0.0585786C2.50235 0.0210714 2.45148 0 2.39844 0H1.59844C1.54539 0 1.49452 0.0210714 1.45702 0.0585786C1.41951 0.0960859 1.39844 0.146957 1.39844 0.2C1.39844 0.253043 1.41951 0.303914 1.45702 0.341421C1.49452 0.378929 1.54539 0.4 1.59844 0.4Z" fill="#FFBA03"/>
<path d="M3.59844 0.4H4.39844C4.45148 0.4 4.50235 0.378929 4.53986 0.341421C4.57737 0.303914 4.59844 0.253043 4.59844 0.2C4.59844 0.146957 4.57737 0.0960859 4.53986 0.0585786C4.50235 0.0210714 4.45148 0 4.39844 0H3.59844C3.54539 0 3.49452 0.0210714 3.45702 0.0585786C3.41951 0.0960859 3.39844 0.146957 3.39844 0.2C3.39844 0.253043 3.41951 0.303914 3.45702 0.341421C3.49452 0.378929 3.54539 0.4 3.59844 0.4Z" fill="#FFBA03"/>
<path d="M3.00078 3.4C3.11124 3.4 3.20078 3.31046 3.20078 3.2C3.20078 3.08954 3.11124 3 3.00078 3C2.89032 3 2.80078 3.08954 2.80078 3.2C2.80078 3.31046 2.89032 3.4 3.00078 3.4Z" fill="#FFBA03"/>
<path d="M1.59844 3.4C1.70889 3.4 1.79844 3.31046 1.79844 3.2C1.79844 3.08954 1.70889 3 1.59844 3C1.48798 3 1.39844 3.08954 1.39844 3.2C1.39844 3.31046 1.48798 3.4 1.59844 3.4Z" fill="#FFBA03"/>
<path d="M4.39922 3.4C4.50968 3.4 4.59922 3.31046 4.59922 3.2C4.59922 3.08954 4.50968 3 4.39922 3C4.28876 3 4.19922 3.08954 4.19922 3.2C4.19922 3.31046 4.28876 3.4 4.39922 3.4Z" fill="#FFBA03"/>
<path d="M3.00078 4.80039C3.11124 4.80039 3.20078 4.71085 3.20078 4.60039C3.20078 4.48993 3.11124 4.40039 3.00078 4.40039C2.89032 4.40039 2.80078 4.48993 2.80078 4.60039C2.80078 4.71085 2.89032 4.80039 3.00078 4.80039Z" fill="#FFBA03"/>
<path d="M1.59844 4.80039C1.70889 4.80039 1.79844 4.71085 1.79844 4.60039C1.79844 4.48993 1.70889 4.40039 1.59844 4.40039C1.48798 4.40039 1.39844 4.48993 1.39844 4.60039C1.39844 4.71085 1.48798 4.80039 1.59844 4.80039Z" fill="#FFBA03"/>
<path d="M4.39922 4.80039C4.50968 4.80039 4.59922 4.71085 4.59922 4.60039C4.59922 4.48993 4.50968 4.40039 4.39922 4.40039C4.28876 4.40039 4.19922 4.48993 4.19922 4.60039C4.19922 4.71085 4.28876 4.80039 4.39922 4.80039Z" fill="#FFBA03"/>
</svg>
