<svg width="19" height="15" viewBox="0 0 19 15" fill="none" xmlns="http://www.w3.org/2000/svg">
<path d="M1.34877 15H15.7594C15.8722 15 15.9781 14.9812 16.084 14.9554C16.5696 14.8849 16.9862 14.5844 17.1473 14.1453L18.9288 5.68018C19.2211 4.87946 18.5767 4.05056 17.6652 4.05056H17.1105V4.0083C17.1105 3.24984 16.5052 2.63228 15.7617 2.63228H8.73708L6.85203 0.147934C6.78067 0.0540078 6.6725 0 6.55741 0H0.372868C0.168021 0 0 0.169067 0 0.380401V13.6216C0 14.3824 0.605335 15 1.34877 15ZM0.745736 0.760801H6.37558L8.26064 3.2428C8.33199 3.33672 8.44017 3.39073 8.55525 3.39073H15.7594C16.0909 3.39073 16.3625 3.66781 16.3625 4.00595V4.04821H3.48931C2.9162 4.04821 2.40753 4.38635 2.2257 4.88885L0.745736 11.9192V0.760801Z" fill="white"/>
</svg>
