<svg width="14" height="14" viewBox="0 0 14 14" fill="none" xmlns="http://www.w3.org/2000/svg">
<path d="M13.6355 3.46002C13.6355 3.46002 13.1854 1.30841 11.2397 0.55244C10.3105 0.188993 8.64072 0.0145379 7 0C5.35927 0.0145379 3.68951 0.188993 2.77477 0.537902C0.829137 1.29387 0.379027 3.44548 0.379027 3.44548C0.0886338 4.66667 -0.0130039 5.90239 0.00151575 6.99273C-0.0130039 8.09761 0.0741141 9.33333 0.379027 10.5545C0.379027 10.5545 0.829137 12.7061 2.77477 13.4621C3.68951 13.811 5.35927 13.9855 7 14C8.64072 13.9855 10.3105 13.8255 11.2252 13.4621C13.1709 12.7061 13.621 10.5545 13.621 10.5545C13.9114 9.33333 14.013 8.09761 13.9985 7.00727C14.013 5.90239 13.9259 4.66667 13.6355 3.46002ZM5.9691 9.79855L4.83657 10.0602L4.69137 8.96989L7.23231 5.19003L8.49552 6.03323L5.9691 9.79855ZM8.82948 5.5244L7.58078 4.6812L8.08897 3.95431L9.32314 4.79751L8.82948 5.5244Z" fill="#FFB900"/>
</svg>
