<svg width="18" height="15" viewBox="0 0 18 15" fill="none" xmlns="http://www.w3.org/2000/svg">
<path fill-rule="evenodd" clip-rule="evenodd" d="M1.74646 11.4007C0.781915 9.73005 1.3542 7.59388 3.02488 6.62932L11.4822 1.74648C13.1528 0.781956 15.2891 1.35448 16.2535 3.02501C17.2181 4.69564 16.6458 6.83181 14.9751 7.79638L6.51779 12.6792C4.8472 13.6437 2.71094 13.0712 1.74646 11.4007ZM9.22906 5.39715C8.9456 5.16225 9.01681 4.91716 9.12613 4.81762C9.29992 4.65935 12.4566 2.84767 12.7336 2.73483C13.0106 2.62199 13.4867 2.55226 13.6036 2.55218C14.3971 2.55166 14.9083 2.95396 15.0415 2.9002C15.1748 2.84643 14.737 2.22355 13.7528 2.02197C12.7686 1.82038 12.0699 2.25974 12.0699 2.25974C12.0699 2.25974 11.3179 2.69393 9.93881 3.49014C8.55973 4.28635 3.42122 7.25307 3.42122 7.25307C2.10562 8.01264 1.65488 9.69492 2.41436 11.0104C3.17389 12.3259 4.8562 12.7766 6.17172 12.0171C6.17172 12.0171 9.58799 10.0447 10.265 9.65378C10.9421 9.2629 10.9455 8.67904 10.3418 9.02753C9.73822 9.37603 7.87289 10.4751 6.27687 11.3966C4.68084 12.318 3.42007 11.2599 3.25568 11.1181C3.0913 10.9763 2.41392 10.0996 3.16919 10.5071C3.92446 10.9146 4.79276 11.1146 5.57207 10.6647C6.35139 10.2148 10.0176 8.11111 10.4555 7.79432C10.8935 7.47753 9.51251 5.63205 9.22906 5.39715Z" fill="white"/>
</svg>
