<svg width="7" height="10" viewBox="0 0 7 10" fill="none" xmlns="http://www.w3.org/2000/svg">
<path d="M3.5 7.72402C4.07995 7.72332 4.63596 7.48332 5.04605 7.05666C5.45614 6.63001 5.68682 6.05154 5.6875 5.44816V0.517128C5.6875 0.416528 5.64909 0.320049 5.58072 0.248915C5.51234 0.17778 5.41961 0.137817 5.32292 0.137817H1.67708C1.58039 0.137817 1.48766 0.17778 1.41928 0.248915C1.35091 0.320049 1.3125 0.416528 1.3125 0.517128V5.44816C1.31318 6.05154 1.54386 6.63001 1.95395 7.05666C2.36404 7.48332 2.92005 7.72332 3.5 7.72402ZM2.04167 0.896438H4.95833V5.44816C4.95833 5.85056 4.80469 6.23648 4.5312 6.52101C4.25771 6.80555 3.88677 6.9654 3.5 6.9654C3.11323 6.9654 2.74229 6.80555 2.4688 6.52101C2.19531 6.23648 2.04167 5.85056 2.04167 5.44816V0.896438Z" fill="black"/>
<path d="M6.41667 3.93115C6.31997 3.93115 6.22724 3.97112 6.15887 4.04225C6.09049 4.11338 6.05208 4.20986 6.05208 4.31046V5.44839C6.05208 6.15259 5.7832 6.82794 5.3046 7.32589C4.82599 7.82383 4.17685 8.10357 3.5 8.10357C2.82315 8.10357 2.17401 7.82383 1.6954 7.32589C1.2168 6.82794 0.947917 6.15259 0.947917 5.44839V4.31046C0.947917 4.20986 0.909505 4.11338 0.841133 4.04225C0.77276 3.97112 0.680027 3.93115 0.583333 3.93115C0.48664 3.93115 0.393907 3.97112 0.325534 4.04225C0.257161 4.11338 0.21875 4.20986 0.21875 4.31046V5.44839C0.219923 6.28764 0.517835 7.0971 1.05572 7.72253C1.5936 8.34796 2.33385 8.74565 3.13542 8.83981V9.2415H2.40625C2.30956 9.2415 2.21682 9.28146 2.14845 9.3526C2.08008 9.42373 2.04167 9.52021 2.04167 9.62081C2.04167 9.72141 2.08008 9.81789 2.14845 9.88902C2.21682 9.96016 2.30956 10.0001 2.40625 10.0001H4.59375C4.69044 10.0001 4.78318 9.96016 4.85155 9.88902C4.91992 9.81789 4.95833 9.72141 4.95833 9.62081C4.95833 9.52021 4.91992 9.42373 4.85155 9.3526C4.78318 9.28146 4.69044 9.2415 4.59375 9.2415H3.86458V8.83981C4.66615 8.74565 5.4064 8.34796 5.94428 7.72253C6.48217 7.0971 6.78008 6.28764 6.78125 5.44839V4.31046C6.78125 4.20986 6.74284 4.11338 6.67447 4.04225C6.60609 3.97112 6.51336 3.93115 6.41667 3.93115Z" fill="black"/>
</svg>
