<svg width="85" height="88" viewBox="0 0 85 88" fill="none" xmlns="http://www.w3.org/2000/svg">
<path d="M22.0312 78.375C24.1979 78.2708 25.6771 77.8646 26.4688 77.1562C27.2604 76.4479 27.6562 74.9062 27.6562 72.5312V44.25C27.6562 41.7708 27.1875 40.1562 26.25 39.4062C25.625 38.9062 24.2188 38.5625 22.0312 38.375V36.75H42.625C46.8958 36.75 50.3542 37.1979 53 38.0938C58.125 39.9062 60.6875 43.1667 60.6875 47.875C60.6875 51.3542 59.4062 54.0938 56.8438 56.0938C54.8854 57.5938 52.8125 58.5521 50.625 58.9688L63.5 77.1875C63.8542 77.6875 64.2292 78.0208 64.625 78.1875C65.0208 78.3333 65.5104 78.4271 66.0938 78.4688V80H53L39.7188 60H38.0312V72.5312C38.0312 74.7812 38.4062 76.3021 39.1562 77.0938C39.9062 77.8646 41.4062 78.2917 43.6562 78.375V80H22.0312V78.375ZM38.0312 57.9375C42.2188 57.875 45.2083 57.2917 47 56.1875C48.8125 55.0625 49.7188 52.4792 49.7188 48.4375C49.7188 45.9583 49.375 44 48.6875 42.5625C47.5 40.125 45.3333 38.9062 42.1875 38.9062C40.4792 38.9062 39.3542 39.125 38.8125 39.5625C38.2917 39.9792 38.0312 40.6771 38.0312 41.6562V57.9375ZM67.7422 79.1738C68.3398 79.0801 68.8496 78.8867 69.2715 78.5938C69.7051 78.3008 70.3613 77.6211 71.2402 76.5547C71.6035 76.1094 72.084 75.4883 72.6816 74.6914C73.2793 73.8945 73.7715 73.25 74.1582 72.7578L69.5352 65.6738C69.1602 65.0996 68.8613 64.7422 68.6387 64.6016C68.416 64.4609 68.0879 64.3613 67.6543 64.3027V63.4238H76.6543V64.3027C75.8223 64.4199 75.3359 64.5078 75.1953 64.5664C75.0547 64.6133 74.9844 64.748 74.9844 64.9707C74.9844 65.2402 75.2891 65.8438 75.8984 66.7812C76.5195 67.707 77.0645 68.4746 77.5332 69.084C78.7285 67.584 79.4727 66.623 79.7656 66.2012C80.0586 65.7793 80.2051 65.4277 80.2051 65.1465C80.2051 64.7949 80.0586 64.5723 79.7656 64.4785C79.4844 64.3848 79.0156 64.3262 78.3594 64.3027V63.4238H84.4062V64.3027C83.9609 64.3848 83.5918 64.4844 83.2988 64.6016C82.7598 64.8359 82.2969 65.1934 81.9102 65.6738L78.2363 70.209L83.5801 78.418C83.709 78.6172 83.8496 78.7695 84.002 78.875C84.166 78.9688 84.3828 79.0684 84.6523 79.1738V80H75.9863V79.1738C76.4902 79.1504 76.8887 79.0918 77.1816 78.998C77.4746 78.9043 77.6211 78.7051 77.6211 78.4004C77.6211 78.2012 77.498 77.8789 77.252 77.4336C77.1113 77.1641 76.8828 76.7832 76.5664 76.291C76.3906 76.0215 76.1387 75.6523 75.8105 75.1836C75.4824 74.7031 75.1836 74.2578 74.9141 73.8477C74.1523 74.8203 73.584 75.5703 73.209 76.0977C72.4238 77.1992 72.0312 77.9082 72.0312 78.2246C72.0312 78.5996 72.1777 78.8457 72.4707 78.9629C72.7754 79.0801 73.2266 79.1504 73.8242 79.1738V80H67.7422V79.1738Z" fill="black"/>
<rect width="18" height="88" fill="black"/>
<path d="M9.7832 81.5957C8.81055 81.5957 8.02734 81.3652 7.43359 80.9043C6.83984 80.4395 6.54297 79.8145 6.54297 79.0293C6.54297 78.334 6.78125 77.793 7.25781 77.4062L6.66016 77.3359V75.8008H12.7891C13.3438 75.8008 13.8262 75.9277 14.2363 76.1816C14.6465 76.4316 14.959 76.7852 15.1738 77.2422C15.3887 77.6992 15.4961 78.2344 15.4961 78.8477C15.4961 79.3125 15.4023 79.7656 15.2148 80.207C15.0312 80.6484 14.793 80.9824 14.5 81.209L13.4688 80.459C13.9414 80.0371 14.1777 79.5254 14.1777 78.9238C14.1777 78.4746 14.0566 78.125 13.8145 77.875C13.5762 77.625 13.2363 77.5 12.7949 77.5H12.4551C12.8965 77.8906 13.1172 78.4043 13.1172 79.041C13.1172 79.8027 12.8203 80.4199 12.2266 80.8926C11.6289 81.3613 10.8379 81.5957 9.85352 81.5957H9.7832ZM9.90625 79.9023C10.4805 79.9023 10.9316 79.7871 11.2598 79.5566C11.584 79.3262 11.7461 79.0098 11.7461 78.6074C11.7461 78.0918 11.5527 77.7227 11.166 77.5H8.5C8.11328 77.7266 7.91992 78.0918 7.91992 78.5957C7.91992 79.002 8.08594 79.3223 8.41797 79.5566C8.75 79.7871 9.24609 79.9023 9.90625 79.9023ZM9.77148 74.7578C9.14258 74.7578 8.58203 74.6367 8.08984 74.3945C7.59766 74.1523 7.2168 73.8047 6.94727 73.3516C6.67773 72.8945 6.54297 72.3652 6.54297 71.7637C6.54297 70.9082 6.80469 70.2109 7.32813 69.6719C7.85156 69.1289 8.5625 68.8262 9.46094 68.7637L9.89453 68.752C10.8672 68.752 11.6484 69.0234 12.2383 69.5664C12.8242 70.1094 13.1172 70.8379 13.1172 71.752C13.1172 72.666 12.8242 73.3965 12.2383 73.9434C11.6523 74.4863 10.8555 74.7578 9.84766 74.7578H9.77148ZM9.89453 73.0645C10.4961 73.0645 10.957 72.9512 11.2773 72.7246C11.5938 72.498 11.752 72.1738 11.752 71.752C11.752 71.3418 11.5957 71.0215 11.2832 70.791C10.9668 70.5605 10.4629 70.4453 9.77148 70.4453C9.18164 70.4453 8.72461 70.5605 8.40039 70.791C8.07617 71.0215 7.91406 71.3457 7.91406 71.7637C7.91406 72.1777 8.07617 72.498 8.40039 72.7246C8.7207 72.9512 9.21875 73.0645 9.89453 73.0645ZM6.66016 65.916H13.3457C14.0449 65.916 14.5879 66.1016 14.9746 66.4727C15.3652 66.8438 15.5605 67.3789 15.5605 68.0781C15.5605 68.3711 15.5273 68.6504 15.4609 68.916H14.1191C14.1543 68.7129 14.1719 68.5352 14.1719 68.3828C14.1719 67.8711 13.9004 67.6152 13.3574 67.6152H6.66016V65.916ZM5.01953 67.75C4.76563 67.75 4.55664 67.666 4.39258 67.498C4.22852 67.3262 4.14648 67.0938 4.14648 66.8008C4.14648 66.5078 4.22852 66.2773 4.39258 66.1094C4.55664 65.9375 4.76563 65.8516 5.01953 65.8516C5.27734 65.8516 5.48828 65.9395 5.65234 66.1152C5.81641 66.2871 5.89844 66.5156 5.89844 66.8008C5.89844 67.0859 5.81641 67.3164 5.65234 67.4922C5.48828 67.6641 5.27734 67.75 5.01953 67.75ZM13 62.8047V64.5039H6.66016V62.8047H13ZM5.01953 64.6035C4.76563 64.6035 4.55664 64.5195 4.39258 64.3516C4.22852 64.1797 4.14648 63.9473 4.14648 63.6543C4.14648 63.3652 4.22852 63.1348 4.39258 62.9629C4.55664 62.791 4.76563 62.7051 5.01953 62.7051C5.27734 62.7051 5.48828 62.793 5.65234 62.9688C5.81641 63.1406 5.89844 63.3691 5.89844 63.6543C5.89844 63.9395 5.81641 64.1699 5.65234 64.3457C5.48828 64.5176 5.27734 64.6035 5.01953 64.6035Z" fill="white"/>
</svg>
