<svg width="14" height="14" viewBox="0 0 14 14" fill="none" xmlns="http://www.w3.org/2000/svg">
<path d="M12.5998 1.8667H1.39998C1.02868 1.8667 0.67259 2.0142 0.410044 2.27674C0.147497 2.53929 0 2.89538 0 3.26668V12.5999C0 12.9712 0.147497 13.3272 0.410044 13.5898C0.67259 13.8523 1.02868 13.9998 1.39998 13.9998H12.5998C12.9711 13.9998 13.3272 13.8523 13.5897 13.5898C13.8523 13.3272 13.9998 12.9712 13.9998 12.5999V3.26668C13.9998 2.89538 13.8523 2.53929 13.5897 2.27674C13.3272 2.0142 12.9711 1.8667 12.5998 1.8667ZM1.39998 2.80002H12.5998C12.7236 2.80002 12.8423 2.84918 12.9298 2.9367C13.0173 3.02421 13.0665 3.14291 13.0665 3.26668V4.19999H0.933318V3.26668C0.933318 3.14291 0.982484 3.02421 1.07 2.9367C1.15751 2.84918 1.27621 2.80002 1.39998 2.80002ZM12.5998 13.0665H1.39998C1.27621 13.0665 1.15751 13.0174 1.07 12.9298C0.982484 12.8423 0.933318 12.7236 0.933318 12.5999V5.13331H13.0665V12.5999C13.0665 12.7236 13.0173 12.8423 12.9298 12.9298C12.8423 13.0174 12.7236 13.0665 12.5998 13.0665Z" fill="white"/>
<path d="M3.73424 0.933318H5.60087C5.72464 0.933318 5.84334 0.884152 5.93085 0.796637C6.01837 0.709121 6.06753 0.590425 6.06753 0.466659C6.06753 0.342893 6.01837 0.224197 5.93085 0.136681C5.84334 0.0491657 5.72464 0 5.60087 0H3.73424C3.61047 0 3.49178 0.0491657 3.40426 0.136681C3.31674 0.224197 3.26758 0.342893 3.26758 0.466659C3.26758 0.590425 3.31674 0.709121 3.40426 0.796637C3.49178 0.884152 3.61047 0.933318 3.73424 0.933318Z" fill="white"/>
<path d="M8.3983 0.933318H10.2649C10.3887 0.933318 10.5074 0.884152 10.5949 0.796637C10.6824 0.709121 10.7316 0.590425 10.7316 0.466659C10.7316 0.342893 10.6824 0.224197 10.5949 0.136681C10.5074 0.0491657 10.3887 0 10.2649 0H8.3983C8.27453 0 8.15584 0.0491657 8.06832 0.136681C7.98081 0.224197 7.93164 0.342893 7.93164 0.466659C7.93164 0.590425 7.98081 0.709121 8.06832 0.796637C8.15584 0.884152 8.27453 0.933318 8.3983 0.933318Z" fill="white"/>
<path d="M6.99986 7.9332C7.25759 7.9332 7.46652 7.72427 7.46652 7.46654C7.46652 7.20881 7.25759 6.99988 6.99986 6.99988C6.74213 6.99988 6.5332 7.20881 6.5332 7.46654C6.5332 7.72427 6.74213 7.9332 6.99986 7.9332Z" fill="white"/>
<path d="M3.73424 7.9332C3.99197 7.9332 4.2009 7.72427 4.2009 7.46654C4.2009 7.20881 3.99197 6.99988 3.73424 6.99988C3.47651 6.99988 3.26758 7.20881 3.26758 7.46654C3.26758 7.72427 3.47651 7.9332 3.73424 7.9332Z" fill="white"/>
<path d="M10.2674 7.9332C10.5252 7.9332 10.7341 7.72427 10.7341 7.46654C10.7341 7.20881 10.5252 6.99988 10.2674 6.99988C10.0097 6.99988 9.80078 7.20881 9.80078 7.46654C9.80078 7.72427 10.0097 7.9332 10.2674 7.9332Z" fill="white"/>
<path d="M6.99986 11.2002C7.25759 11.2002 7.46652 10.9912 7.46652 10.7335C7.46652 10.4758 7.25759 10.2668 6.99986 10.2668C6.74213 10.2668 6.5332 10.4758 6.5332 10.7335C6.5332 10.9912 6.74213 11.2002 6.99986 11.2002Z" fill="white"/>
<path d="M3.73424 11.2002C3.99197 11.2002 4.2009 10.9912 4.2009 10.7335C4.2009 10.4758 3.99197 10.2668 3.73424 10.2668C3.47651 10.2668 3.26758 10.4758 3.26758 10.7335C3.26758 10.9912 3.47651 11.2002 3.73424 11.2002Z" fill="white"/>
<path d="M10.2674 11.2002C10.5252 11.2002 10.7341 10.9912 10.7341 10.7335C10.7341 10.4758 10.5252 10.2668 10.2674 10.2668C10.0097 10.2668 9.80078 10.4758 9.80078 10.7335C9.80078 10.9912 10.0097 11.2002 10.2674 11.2002Z" fill="white"/>
</svg>
