<svg width="12" height="12" viewBox="0 0 12 12" fill="none" xmlns="http://www.w3.org/2000/svg">
<path d="M4.93359 3.96526L6.96094 5.94788L4.97832 7.96032L5.41062 8.37772L7.79573 5.93298L5.35099 3.53296L4.93359 3.96526Z" fill="black"/>
<path d="M5.96278 0C2.66834 0 0 2.66834 0 5.96278C0 9.25721 2.66834 11.9256 5.96278 11.9256C9.25721 11.9256 11.9256 9.25721 11.9256 5.96278C11.9256 2.66834 9.25721 0 5.96278 0ZM5.96278 11.3293C2.9963 11.3293 0.596278 8.92926 0.596278 5.96278C0.596278 2.9963 2.9963 0.596278 5.96278 0.596278C8.92926 0.596278 11.3293 2.9963 11.3293 5.96278C11.3293 8.92926 8.92926 11.3293 5.96278 11.3293Z" fill="black"/>
</svg>
