<svg width="11" height="13" viewBox="0 0 11 13" fill="none" xmlns="http://www.w3.org/2000/svg">
<path d="M2.64212 5.45558V10.9476C2.64212 12.0793 3.56284 13 4.69454 13C5.82624 13 6.74697 12.0793 6.74697 10.9476V6.55247C6.74697 5.90679 7.27819 5.38153 7.93114 5.38153C8.58409 5.38153 9.11531 5.90682 9.11531 6.55247V8.34888C8.55698 8.49064 8.14269 8.99741 8.14269 9.59923C8.14269 10.3105 8.72136 10.8892 9.43264 10.8892C10.1439 10.8892 10.7226 10.3105 10.7226 9.59923C10.7226 9.01027 10.3257 8.51259 9.78541 8.35873V6.55247C9.78541 5.5373 8.95358 4.71143 7.93114 4.71143C6.90866 4.71143 6.07686 5.53733 6.07686 6.55247V10.9476C6.07686 11.7098 5.45675 12.3299 4.69454 12.3299C3.9323 12.3299 3.31222 11.7098 3.31222 10.9476V5.45558C4.79666 5.28855 5.95434 4.02571 5.95434 2.49737V0.335052C5.95434 0.150003 5.80433 0 5.61928 0C5.43424 0 5.28423 0.150003 5.28423 0.335052V2.49734C5.28423 3.76946 4.24929 4.8044 2.97717 4.8044C1.70504 4.8044 0.670103 3.76946 0.670103 2.49734V0.335052C0.670103 0.150003 0.5201 0 0.335052 0C0.150003 0 0 0.150003 0 0.335052V2.49734C0 4.02571 1.15764 5.28852 2.64212 5.45558Z" fill="white"/>
</svg>
