<svg width="12" height="12" viewBox="0 0 12 12" fill="none" xmlns="http://www.w3.org/2000/svg">
<path d="M6.99219 7.96028L4.96484 5.97765L6.94747 3.96522L6.51517 3.54782L4.13005 5.99256L6.57479 8.39258L6.99219 7.96028Z" fill="black"/>
<path d="M5.963 11.9255C9.25744 11.9255 11.9258 9.25719 11.9258 5.96276C11.9258 2.66832 9.25744 -1.81198e-05 5.963 -1.81198e-05C2.66857 -1.81198e-05 0.000226021 2.66832 0.000226021 5.96276C0.000226021 9.25719 2.66857 11.9255 5.963 11.9255ZM5.963 0.596259C8.92949 0.596259 11.3295 2.99628 11.3295 5.96276C11.3295 8.92924 8.92949 11.3293 5.963 11.3293C2.99652 11.3293 0.596503 8.92924 0.596503 5.96276C0.596503 2.99628 2.99652 0.596259 5.963 0.596259Z" fill="black"/>
</svg>
