<svg width="17" height="22" viewBox="0 0 17 22" fill="none" xmlns="http://www.w3.org/2000/svg">
<path d="M14.6818 6.18182C14.6818 7.40447 14.3193 8.59966 13.64 9.61625C12.9607 10.6328 11.9953 11.4252 10.8657 11.8931C9.7361 12.361 8.49314 12.4834 7.29399 12.2449C6.09483 12.0063 4.99334 11.4176 4.12879 10.553C3.26425 9.68848 2.67549 8.58699 2.43696 7.38783C2.19844 6.18868 2.32086 4.94572 2.78874 3.81614C3.25663 2.68656 4.04897 1.72109 5.06557 1.04182C6.08216 0.362557 7.27735 0 8.5 0C10.1395 0 11.7119 0.651297 12.8712 1.81061C14.0305 2.96993 14.6818 4.5423 14.6818 6.18182ZM12.5336 11.8382C11.358 12.6823 9.94725 13.1363 8.5 13.1363C7.05275 13.1363 5.64196 12.6823 4.46636 11.8382C3.1163 12.566 1.98832 13.6456 1.20201 14.9625C0.415702 16.2793 0.00035432 17.7844 0 19.3182C0 19.933 0.244236 20.5226 0.67898 20.9574C1.11372 21.3921 1.70336 21.6364 2.31818 21.6364H14.6818C15.2966 21.6364 15.8863 21.3921 16.321 20.9574C16.7558 20.5226 17 19.933 17 19.3182C16.9996 17.7844 16.5843 16.2793 15.798 14.9625C15.0117 13.6456 13.8837 12.566 12.5336 11.8382Z" fill="white"/>
</svg>
