<svg width="6" height="6" viewBox="0 0 6 6" fill="none" xmlns="http://www.w3.org/2000/svg">
<path d="M3 0C2.40666 0 1.82664 0.175947 1.33329 0.505591C0.839943 0.835235 0.455426 1.30377 0.228363 1.85195C0.00129984 2.40013 -0.0581101 3.00333 0.0576455 3.58527C0.173401 4.16721 0.459123 4.70176 0.878681 5.12132C1.29824 5.54088 1.83279 5.8266 2.41473 5.94235C2.99667 6.05811 3.59987 5.9987 4.14805 5.77164C4.69623 5.54457 5.16476 5.16006 5.49441 4.66671C5.82405 4.17336 6 3.59334 6 3C6 2.20435 5.68393 1.44129 5.12132 0.878679C4.55871 0.31607 3.79565 0 3 0V0ZM4.36688 3.69562L3 2.32687L1.63313 3.69562L1.36688 3.42937L2.86688 1.92937C2.88431 1.9118 2.90504 1.89785 2.92789 1.88833C2.95074 1.87881 2.97525 1.87391 3 1.87391C3.02475 1.87391 3.04926 1.87881 3.07211 1.88833C3.09496 1.89785 3.11569 1.9118 3.13313 1.92937L4.63313 3.42937L4.36688 3.69562Z" fill="#00791B"/>
</svg>
