<svg width="9" height="9" viewBox="0 0 9 9" fill="red" xmlns="http://www.w3.org/2000/svg">
<path d="M4.5006 4.67308C4.96272 4.67308 5.41447 4.53604 5.79871 4.2793C6.18295 4.02256 6.48243 3.65764 6.65928 3.23069C6.83613 2.80375 6.8824 2.33395 6.79224 1.8807C6.70209 1.42746 6.47955 1.01113 6.15278 0.684357C5.82601 0.357587 5.40968 0.135053 4.95644 0.044897C4.50319 -0.0452589 4.03339 0.00101239 3.60645 0.177859C3.1795 0.354706 2.81458 0.654186 2.55784 1.03843C2.3011 1.42267 2.16406 1.87442 2.16406 2.33654C2.16406 2.95623 2.41023 3.55054 2.84842 3.98872C3.2866 4.42691 3.88091 4.67308 4.5006 4.67308ZM4.5006 0.346155C4.89426 0.346155 5.27908 0.462889 5.6064 0.681595C5.93372 0.900301 6.18883 1.21116 6.33948 1.57485C6.49012 1.93855 6.52954 2.33875 6.45274 2.72484C6.37594 3.11094 6.18638 3.46559 5.90802 3.74395C5.62965 4.02231 5.275 4.21188 4.88891 4.28868C4.50281 4.36548 4.10261 4.32606 3.73891 4.17541C3.37522 4.02477 3.06436 3.76965 2.84566 3.44234C2.62695 3.11502 2.51022 2.7302 2.51022 2.33654C2.51022 1.80866 2.71992 1.30239 3.09319 0.929125C3.46646 0.555855 3.97272 0.346155 4.5006 0.346155Z" fill="black"/>
<path d="M5.36538 5.19238H3.63461C2.67066 5.19238 1.74618 5.57531 1.06455 6.25694C0.382932 6.93856 0 7.86304 0 8.827C0 8.8729 0.0182349 8.91692 0.0506931 8.94938C0.0831513 8.98184 0.127174 9.00007 0.173077 9.00007H8.82692C8.87282 9.00007 8.91685 8.98184 8.94931 8.94938C8.98176 8.91692 9 8.8729 9 8.827C9 7.86304 8.61707 6.93856 7.93544 6.25694C7.25382 5.57531 6.32934 5.19238 5.36538 5.19238ZM0.350481 8.65392C0.39584 7.81322 0.761504 7.02183 1.37232 6.4424C1.98313 5.86297 2.79269 5.53953 3.63461 5.53854H5.36538C6.20805 5.53842 7.0187 5.86137 7.63044 6.44092C8.24218 7.02046 8.60845 7.81248 8.65384 8.65392H0.350481Z" fill="black"/>
</svg>
