<svg width="9" height="9" viewBox="0 0 9 9" fill="none" xmlns="http://www.w3.org/2000/svg">
<path d="M4.5 4.5C4.05499 4.5 3.61998 4.36804 3.24997 4.12081C2.87996 3.87358 2.59157 3.52217 2.42127 3.11104C2.25097 2.69991 2.20642 2.24751 2.29323 1.81105C2.38005 1.37459 2.59434 0.973679 2.90901 0.659011C3.22368 0.344343 3.62459 0.130051 4.06105 0.0432341C4.49751 -0.0435826 4.94991 0.000974887 5.36104 0.171272C5.77217 0.341569 6.12358 0.629957 6.37081 0.999968C6.61804 1.36998 6.75 1.80499 6.75 2.25C6.75 2.84674 6.51295 3.41904 6.09099 3.84099C5.66904 4.26295 5.09674 4.5 4.5 4.5ZM4.5 0.642858C4.18214 0.642858 3.87141 0.737116 3.60712 0.913711C3.34283 1.09031 3.13684 1.34131 3.01519 1.63497C2.89355 1.92864 2.86173 2.25178 2.92374 2.56354C2.98575 2.87529 3.13882 3.16166 3.36358 3.38642C3.58834 3.61119 3.87471 3.76425 4.18646 3.82626C4.49822 3.88828 4.82136 3.85645 5.11503 3.73481C5.4087 3.61317 5.6597 3.40718 5.83629 3.14288C6.01289 2.87859 6.10714 2.56786 6.10714 2.25C6.10714 1.82376 5.93782 1.41498 5.63642 1.11358C5.33503 0.812182 4.92624 0.642858 4.5 0.642858ZM8.67857 9H0.321429C0.23618 9 0.154424 8.96614 0.0941443 8.90586C0.0338647 8.84558 0 8.76382 0 8.67857C0 6.53143 1.76786 5.14286 4.5 5.14286C7.23215 5.14286 9 6.53143 9 8.67857C9 8.76382 8.96614 8.84558 8.90586 8.90586C8.84558 8.96614 8.76382 9 8.67857 9ZM0.658929 8.35715H8.35715C8.18679 6.75 6.75 5.78572 4.51607 5.78572C2.28214 5.78572 0.829286 6.75 0.658929 8.35715Z" fill="#00164E"/>
</svg>
