<svg width="10" height="10" viewBox="0 0 10 10" fill="none" xmlns="http://www.w3.org/2000/svg">
<path fill-rule="evenodd" clip-rule="evenodd" d="M4.56522 9.13043C7.08652 9.13043 9.13043 7.08652 9.13043 4.56522C9.13043 2.04392 7.08652 0 4.56522 0C2.04392 0 0 2.04392 0 4.56522C0 7.08652 2.04392 9.13043 4.56522 9.13043ZM4.56522 8.72464C6.8624 8.72464 8.72464 6.8624 8.72464 4.56522C8.72464 2.26803 6.8624 0.405797 4.56522 0.405797C2.26803 0.405797 0.405797 2.26803 0.405797 4.56522C0.405797 6.8624 2.26803 8.72464 4.56522 8.72464Z" fill="white"/>
<path fill-rule="evenodd" clip-rule="evenodd" d="M3.806 5.26873L2.90989 4.03535C2.84474 3.94567 2.71768 3.92535 2.62703 3.99121C2.53574 4.05754 2.51603 4.18363 2.58159 4.27387L3.53678 5.58857C3.54692 5.60252 3.55856 5.6148 3.57132 5.62533C3.57753 5.64146 3.58592 5.65705 3.59656 5.67169C3.66288 5.76298 3.7895 5.78231 3.8804 5.71627L6.53331 3.78881C6.62418 3.7228 6.6445 3.59575 6.57863 3.50509C6.51231 3.4138 6.38569 3.39448 6.29479 3.46052L3.806 5.26873Z" fill="white"/>
</svg>
