<svg width="13" height="14" viewBox="0 0 13 14" fill="none" xmlns="http://www.w3.org/2000/svg">
<path d="M8.52942 8.11813C8.36298 8.11813 8.22796 8.25331 8.22796 8.41976V11.217C8.22796 11.3834 8.09262 11.5186 7.92618 11.5186H5.95156V8.11813V2.8112C5.95156 2.43522 5.68696 2.04976 5.33587 1.91458L1.9264 0.6034H7.92602C8.09231 0.6034 8.22764 0.738889 8.22764 0.905022V3.70222C8.22764 3.86898 8.36267 4.00384 8.52927 4.00384C8.69571 4.00384 8.83073 3.86898 8.83073 3.70222V0.905022C8.83136 0.405844 8.4252 0 7.92602 0H0.301933C0.285444 0.000622222 0.273622 0.00248889 0.2618 0.00404445C0.253711 0.00528889 0.245622 0.00559999 0.237689 0.0073111C0.227733 0.00948888 0.2184 0.0129111 0.208756 0.0161778C0.199733 0.0191333 0.1904 0.0214667 0.181689 0.0253556C0.172978 0.0292445 0.164889 0.0345333 0.156489 0.0388889C0.148089 0.0435556 0.139378 0.0477556 0.131289 0.0530445C0.122578 0.0592667 0.114956 0.0662667 0.106867 0.0734222C0.100333 0.0790222 0.0931777 0.084 0.087111 0.0900667C0.080111 0.0972222 0.0742 0.105467 0.0679778 0.1134C0.0619112 0.120711 0.0555333 0.127867 0.0500888 0.1358C0.0455777 0.142956 0.0421556 0.150578 0.0382667 0.158044C0.0325112 0.168156 0.0267555 0.178578 0.0222444 0.189467C0.0177333 0.200356 0.0166444 0.207044 0.0146222 0.213889C0.0113555 0.224778 0.00777782 0.235511 0.00560004 0.246867C0.00342226 0.258067 0.00295555 0.269422 0.00217777 0.280467C0.0017111 0.287622 0 0.294622 0 0.301778V11.8205C0.000622222 11.837 0.00248889 11.849 0.00404445 11.8606C0.00513334 11.8686 0.00559999 11.8771 0.0073111 11.8848C0.00933332 11.8946 0.0129111 11.9036 0.0160222 11.9131C0.0191333 11.9226 0.0214667 11.9319 0.0253556 11.9414C0.0289334 11.9493 0.0337555 11.9566 0.0379555 11.9641C0.0429333 11.9733 0.0474444 11.9829 0.0535111 11.9915C0.0588 11.9994 0.0653334 12.0061 0.0712445 12.0131C0.0776223 12.0207 0.0835334 12.029 0.0906889 12.0358C0.0969111 12.042 0.104067 12.047 0.110911 12.0524C0.119311 12.0591 0.127244 12.0668 0.136578 12.0725C0.142644 12.0767 0.149489 12.0797 0.155867 12.0829C0.167067 12.0892 0.178267 12.0954 0.190244 12.1004C0.193667 12.1021 4.97871 13.9426 4.97871 13.9426C5.07827 13.9809 5.17876 14 5.27567 14C5.4138 14 5.54462 13.9614 5.65538 13.8855C5.8436 13.7561 5.95156 13.5333 5.95156 13.274V12.1221H7.92602C8.4252 12.1221 8.83105 11.7163 8.83105 11.2171V8.41976C8.8312 8.25331 8.69633 8.11813 8.52942 8.11813ZM5.34831 8.11813V13.2742H5.34816C5.34816 13.3409 5.32949 13.377 5.31362 13.3882C5.29776 13.3989 5.257 13.4033 5.19493 13.3795L0.603711 11.6133V0.741067L5.11933 2.47769C5.23491 2.52218 5.34831 2.68753 5.34831 2.81136V8.11813Z" fill="black"/>
<path d="M11.9285 5.74022L10.1915 4.00344C10.0734 3.88569 9.88299 3.88569 9.76492 4.00344C9.64701 4.12135 9.64701 4.31222 9.76492 4.43013L11.0937 5.75873H7.59834C7.43174 5.75873 7.29688 5.89391 7.29688 6.06035C7.29688 6.22711 7.43174 6.36198 7.59834 6.36198H11.0937L9.76492 7.69073C9.64701 7.8088 9.64701 7.99935 9.76492 8.11727C9.88299 8.23518 10.0734 8.23518 10.1915 8.11727L11.9285 6.38018C12.0138 6.29509 12.0611 6.18138 12.0611 6.0602C12.0611 5.93949 12.0138 5.82562 11.9285 5.74022Z" fill="black"/>
</svg>
