<svg width="63" height="18" viewBox="0 0 63 18" fill="none" xmlns="http://www.w3.org/2000/svg">
<path d="M6.6709 13.2197C6.6709 13.1025 6.6709 12.959 6.6709 12.7891C6.67676 12.6133 6.68555 12.4668 6.69727 12.3496H6.67969C6.55078 12.4551 6.40137 12.5605 6.23145 12.666C6.06738 12.7656 5.88574 12.8594 5.68652 12.9473C5.4873 13.0293 5.26758 13.0938 5.02734 13.1406C4.78711 13.1934 4.54102 13.2197 4.28906 13.2197C3.83789 13.2197 3.39551 13.1406 2.96191 12.9824C2.53418 12.8184 2.15332 12.5635 1.81934 12.2178C1.48535 11.8662 1.21582 11.418 1.01074 10.873C0.805664 10.3281 0.703125 9.67188 0.703125 8.9043C0.703125 8.13672 0.805664 7.46582 1.01074 6.8916C1.22168 6.31152 1.5 5.82812 1.8457 5.44141C2.19141 5.05469 2.58691 4.76465 3.03223 4.57129C3.4834 4.37207 3.94629 4.27246 4.4209 4.27246C4.94238 4.27246 5.40527 4.38379 5.80957 4.60645C6.21387 4.82324 6.54492 5.10156 6.80273 5.44141H6.83789L6.92578 4.4834H8.75391V13.1582C8.75391 13.6562 8.71289 14.084 8.63086 14.4414C8.54883 14.7988 8.42871 15.1152 8.27051 15.3906C8.08301 15.7129 7.84277 15.9941 7.5498 16.2344C7.2627 16.4746 6.93164 16.6738 6.55664 16.832C6.1875 16.9902 5.78027 17.1074 5.33496 17.1836C4.88965 17.2656 4.41797 17.3066 3.91992 17.3066C3.63867 17.3066 3.36328 17.2949 3.09375 17.2715C2.82422 17.2539 2.56934 17.2246 2.3291 17.1836C2.09473 17.1484 1.87793 17.1045 1.67871 17.0518C1.48535 17.0049 1.32129 16.9551 1.18652 16.9023V15.2061C1.57324 15.335 1.97754 15.4316 2.39941 15.4961C2.82715 15.5664 3.27539 15.6016 3.74414 15.6016C4.67578 15.6016 5.39648 15.4199 5.90625 15.0566C6.41602 14.6992 6.6709 14.1543 6.6709 13.4219V13.2197ZM4.80762 11.5586C5.01855 11.5586 5.21777 11.5322 5.40527 11.4795C5.59277 11.4268 5.76562 11.3594 5.92383 11.2773C6.08203 11.1953 6.22266 11.1045 6.3457 11.0049C6.47461 10.9053 6.58301 10.8057 6.6709 10.7061V6.90039C6.44824 6.63672 6.17285 6.41699 5.84473 6.24121C5.5166 6.06543 5.16797 5.97461 4.79883 5.96875C4.66992 5.96875 4.53223 5.98633 4.38574 6.02148C4.24512 6.05078 4.10156 6.10645 3.95508 6.18848C3.80859 6.27051 3.66797 6.38184 3.5332 6.52246C3.4043 6.65723 3.29004 6.83008 3.19043 7.04102C3.09082 7.25195 3.00879 7.50391 2.94434 7.79688C2.88574 8.08984 2.85645 8.42969 2.85645 8.81641C2.85645 9.24414 2.89746 9.62793 2.97949 9.96777C3.06152 10.3018 3.18457 10.5889 3.34863 10.8291C3.5127 11.0635 3.71484 11.2451 3.95508 11.374C4.20117 11.4971 4.48535 11.5586 4.80762 11.5586ZM17.0068 8.74609C17.0068 8.29492 16.9541 7.89648 16.8486 7.55078C16.7432 7.20508 16.5967 6.91504 16.4092 6.68066C16.2217 6.44629 15.9961 6.27051 15.7324 6.15332C15.4688 6.03613 15.1816 5.97754 14.8711 5.97754C14.5664 5.97754 14.2822 6.03613 14.0186 6.15332C13.7607 6.27051 13.5381 6.44629 13.3506 6.68066C13.1631 6.91504 13.0166 7.20508 12.9111 7.55078C12.8057 7.89648 12.7529 8.29492 12.7529 8.74609C12.7529 9.19727 12.8057 9.5957 12.9111 9.94141C13.0166 10.2871 13.1631 10.5771 13.3506 10.8115C13.5439 11.04 13.7695 11.2158 14.0273 11.3389C14.291 11.4561 14.5781 11.5146 14.8887 11.5146C15.1992 11.5146 15.4834 11.4561 15.7412 11.3389C15.999 11.2158 16.2217 11.04 16.4092 10.8115C16.5967 10.5771 16.7432 10.2871 16.8486 9.94141C16.9541 9.5957 17.0068 9.19727 17.0068 8.74609ZM19.1602 8.74609C19.1602 9.41406 19.0605 10.0234 18.8613 10.5742C18.6621 11.125 18.375 11.5967 18 11.9893C17.6309 12.3818 17.1826 12.6865 16.6553 12.9033C16.1279 13.1143 15.5391 13.2197 14.8887 13.2197C14.2207 13.2197 13.6201 13.1143 13.0869 12.9033C12.5596 12.6865 12.1113 12.3818 11.7422 11.9893C11.373 11.5967 11.0889 11.125 10.8896 10.5742C10.6963 10.0234 10.5996 9.41406 10.5996 8.74609C10.5996 8.07812 10.6992 7.46875 10.8984 6.91797C11.0977 6.36719 11.3818 5.89551 11.751 5.50293C12.126 5.11035 12.5771 4.80859 13.1045 4.59766C13.6318 4.38086 14.2207 4.27246 14.8711 4.27246C15.5391 4.27246 16.1367 4.38086 16.6641 4.59766C17.1973 4.80859 17.6484 5.11035 18.0176 5.50293C18.3867 5.89551 18.668 6.36719 18.8613 6.91797C19.0605 7.46875 19.1602 8.07812 19.1602 8.74609ZM23.3965 14.1162C23.3965 14.9131 23.2705 15.5283 23.0186 15.9619C22.7549 16.4189 22.3682 16.7559 21.8584 16.9727C21.3486 17.1953 20.7451 17.3066 20.0479 17.3066C19.7373 17.3066 19.459 17.2891 19.2129 17.2539C18.9609 17.2188 18.7236 17.1689 18.501 17.1045V15.3994C18.6885 15.4521 18.8994 15.499 19.1338 15.54C19.3623 15.5811 19.582 15.6016 19.793 15.6016C20.0742 15.6016 20.3203 15.5693 20.5312 15.5049C20.7422 15.4404 20.9121 15.3291 21.041 15.1709C21.1406 15.0537 21.2109 14.8926 21.252 14.6875C21.293 14.4824 21.3135 14.2363 21.3135 13.9492V4.4834H23.3965V14.1162ZM21.2607 0.273438H23.4492V2.53223H21.2607V0.273438ZM25.7871 4.4834H27.8701V13H25.7871V4.4834ZM25.7344 0.273438H27.9229V2.53223H25.7344V0.273438ZM35.4199 12.9912C35.1855 13.0615 34.9043 13.1172 34.5762 13.1582C34.2539 13.1992 33.9521 13.2197 33.6709 13.2197C32.9561 13.2197 32.3701 13.1055 31.9131 12.877C31.4619 12.6426 31.1426 12.3086 30.9551 11.875C30.8203 11.5645 30.7529 11.1426 30.7529 10.6094V6.19727H29.1621V4.4834H30.7529V2.10156H32.8359V4.4834H35.2969V6.19727H32.8359V10.3369C32.8359 10.665 32.8857 10.9082 32.9854 11.0664C33.1611 11.3359 33.5098 11.4707 34.0312 11.4707C34.2715 11.4707 34.5088 11.4531 34.7432 11.418C34.9834 11.377 35.209 11.3271 35.4199 11.2686V12.9912ZM41.4404 11.541C41.8447 11.541 42.2666 11.5 42.7061 11.418C43.1455 11.3359 43.5908 11.2188 44.042 11.0664V12.7275C43.7725 12.8447 43.3594 12.9561 42.8027 13.0615C42.2461 13.167 41.6689 13.2197 41.0713 13.2197C40.4678 13.2197 39.8936 13.1436 39.3486 12.9912C38.8096 12.833 38.3379 12.5811 37.9336 12.2354C37.5293 11.8896 37.207 11.4414 36.9668 10.8906C36.7324 10.3398 36.6152 9.67188 36.6152 8.88672C36.6152 8.11328 36.7266 7.43652 36.9492 6.85645C37.1719 6.27637 37.4707 5.7959 37.8457 5.41504C38.2207 5.03418 38.6484 4.75 39.1289 4.5625C39.6152 4.36914 40.1162 4.27246 40.6318 4.27246C41.1709 4.27246 41.666 4.35449 42.1172 4.51855C42.5742 4.68262 42.9668 4.94043 43.2949 5.29199C43.6289 5.64355 43.8867 6.09766 44.0684 6.6543C44.2559 7.20508 44.3496 7.8584 44.3496 8.61426C44.3438 8.90723 44.335 9.15625 44.3232 9.36133H38.7422C38.7715 9.75391 38.8594 10.0908 39.0059 10.3721C39.1523 10.6475 39.3428 10.873 39.5771 11.0488C39.8174 11.2188 40.0957 11.3447 40.4121 11.4268C40.7285 11.5029 41.0713 11.541 41.4404 11.541ZM40.6055 5.89844C40.3418 5.89844 40.1074 5.94824 39.9023 6.04785C39.6973 6.1416 39.5186 6.27344 39.3662 6.44336C39.2197 6.60742 39.1025 6.80078 39.0146 7.02344C38.9268 7.24609 38.8682 7.4834 38.8389 7.73535H42.1875C42.1875 7.4834 42.1523 7.24609 42.082 7.02344C42.0176 6.80078 41.918 6.60742 41.7832 6.44336C41.6543 6.27344 41.4902 6.1416 41.291 6.04785C41.0977 5.94824 40.8691 5.89844 40.6055 5.89844ZM52.418 12.8154C52.1543 12.9268 51.832 13.0205 51.4512 13.0967C51.0703 13.1787 50.6689 13.2197 50.2471 13.2197C49.6318 13.2197 49.0576 13.1318 48.5244 12.9561C47.9912 12.7803 47.5254 12.5137 47.127 12.1562C46.7285 11.7988 46.415 11.3477 46.1865 10.8027C45.958 10.252 45.8438 9.61035 45.8438 8.87793C45.8438 8.05762 45.9756 7.35449 46.2393 6.76855C46.5029 6.18262 46.8428 5.70801 47.2588 5.34473C47.6807 4.97559 48.1523 4.70605 48.6738 4.53613C49.2012 4.36035 49.7197 4.27246 50.2295 4.27246C50.6104 4.27246 50.9766 4.30762 51.3281 4.37793C51.6797 4.44238 51.999 4.5332 52.2861 4.65039V6.34668C52.0283 6.23535 51.7529 6.14746 51.46 6.08301C51.1729 6.0127 50.8623 5.97754 50.5283 5.97754C50.1943 5.97754 49.875 6.03027 49.5703 6.13574C49.2656 6.23535 48.9961 6.39648 48.7617 6.61914C48.5273 6.8418 48.3398 7.1377 48.1992 7.50684C48.0645 7.87012 47.9971 8.30957 47.9971 8.8252C47.9971 9.2002 48.0498 9.55469 48.1553 9.88867C48.2607 10.2168 48.4131 10.498 48.6123 10.7324C48.8174 10.9668 49.0752 11.1572 49.3857 11.3037C49.7021 11.4443 50.0742 11.5146 50.502 11.5146C50.8828 11.5146 51.2285 11.4766 51.5391 11.4004C51.8496 11.3242 52.1426 11.2305 52.418 11.1191V12.8154ZM56.3994 3.74512C56.3994 4.18457 56.3906 4.54785 56.373 4.83496C56.3613 5.11621 56.3379 5.37109 56.3027 5.59961H56.3379C56.4609 5.43555 56.6104 5.27148 56.7861 5.10742C56.9678 4.94336 57.1641 4.80273 57.375 4.68555C57.5918 4.5625 57.835 4.46289 58.1045 4.38672C58.3799 4.31055 58.6816 4.27246 59.0098 4.27246C59.291 4.27246 59.5635 4.30176 59.8271 4.36035C60.0967 4.41309 60.3457 4.49805 60.5742 4.61523C60.8086 4.73242 61.0195 4.88477 61.207 5.07227C61.4004 5.25977 61.5615 5.48242 61.6904 5.74023C61.8018 5.96289 61.8838 6.21484 61.9365 6.49609C61.9893 6.77734 62.0156 7.12012 62.0156 7.52441V13H59.9326V7.80566C59.9326 7.54199 59.9209 7.32812 59.8975 7.16406C59.874 6.99414 59.833 6.84766 59.7744 6.72461C59.6514 6.4668 59.4756 6.28516 59.2471 6.17969C59.0186 6.07422 58.7578 6.02148 58.4648 6.02148C58.0605 6.02734 57.6855 6.12402 57.3398 6.31152C57 6.49902 56.6865 6.77441 56.3994 7.1377V13H54.3164V0.273438H56.3994V3.74512Z" fill="black"/>
</svg>
