<svg width="15" height="15" viewBox="0 0 15 15" fill="none" xmlns="http://www.w3.org/2000/svg">
<rect width="15" height="15" rx="7.5" fill="#FF4F03"/>
<path d="M6.4 8.88994C6.32707 8.88994 6.25712 8.86282 6.20555 8.81456C6.15397 8.7663 6.125 8.70084 6.125 8.63258V6.57376C6.125 6.5055 6.15397 6.44005 6.20555 6.39178C6.25712 6.34352 6.32707 6.31641 6.4 6.31641C6.47293 6.31641 6.54288 6.34352 6.59446 6.39178C6.64603 6.44005 6.675 6.5055 6.675 6.57376V8.63258C6.675 8.70084 6.64603 8.7663 6.59446 8.81456C6.54288 8.86282 6.47293 8.88994 6.4 8.88994Z" fill="white"/>
<path d="M10.8023 8.88994C10.7294 8.88994 10.6595 8.86282 10.6079 8.81456C10.5563 8.7663 10.5273 8.70084 10.5273 8.63258V6.57376C10.5273 6.5055 10.5563 6.44005 10.6079 6.39178C10.6595 6.34352 10.7294 6.31641 10.8023 6.31641C10.8753 6.31641 10.9452 6.34352 10.9968 6.39178C11.0484 6.44005 11.0773 6.5055 11.0773 6.57376V8.63258C11.0773 8.70084 11.0484 8.7663 10.9968 8.81456C10.9452 8.86282 10.8753 8.88994 10.8023 8.88994Z" fill="white"/>
<path d="M9.70078 9.91897C9.62785 9.91897 9.5579 9.89186 9.50633 9.8436C9.45475 9.79533 9.42578 9.72988 9.42578 9.66162V5.54397C9.42578 5.47572 9.45475 5.41026 9.50633 5.362C9.5579 5.31373 9.62785 5.28662 9.70078 5.28662C9.77371 5.28662 9.84366 5.31373 9.89523 5.362C9.94681 5.41026 9.97578 5.47572 9.97578 5.54397V9.66162C9.97578 9.72988 9.94681 9.79533 9.89523 9.8436C9.84366 9.89186 9.77371 9.91897 9.70078 9.91897Z" fill="white"/>
<path d="M8.59922 10.9485C8.52628 10.9485 8.45634 10.9214 8.40476 10.8731C8.35319 10.8249 8.32422 10.7594 8.32422 10.6911V4.51468C8.32422 4.44642 8.35319 4.38096 8.40476 4.3327C8.45634 4.28444 8.52628 4.25732 8.59922 4.25732C8.67215 4.25732 8.7421 4.28444 8.79368 4.3327C8.84525 4.38096 8.87422 4.44642 8.87422 4.51468V10.6911C8.87422 10.7594 8.84525 10.8249 8.79368 10.8731C8.7421 10.9214 8.67215 10.9485 8.59922 10.9485Z" fill="white"/>
<path d="M7.49766 9.91897C7.42472 9.91897 7.35477 9.89186 7.3032 9.8436C7.25163 9.79533 7.22266 9.72988 7.22266 9.66162V5.54397C7.22266 5.47572 7.25163 5.41026 7.3032 5.362C7.35477 5.31373 7.42472 5.28662 7.49766 5.28662C7.57059 5.28662 7.64054 5.31373 7.69211 5.362C7.74368 5.41026 7.77266 5.47572 7.77266 5.54397V9.66162C7.77266 9.72988 7.74368 9.79533 7.69211 9.8436C7.64054 9.89186 7.57059 9.91897 7.49766 9.91897Z" fill="white"/>
<path d="M5.30234 9.91897C5.22941 9.91897 5.15946 9.89186 5.10789 9.8436C5.05632 9.79533 5.02734 9.72988 5.02734 9.66162V5.54397C5.02734 5.47572 5.05632 5.41026 5.10789 5.362C5.15946 5.31373 5.22941 5.28662 5.30234 5.28662C5.37528 5.28662 5.44523 5.31373 5.4968 5.362C5.54837 5.41026 5.57734 5.47572 5.57734 5.54397V9.66162C5.57734 9.72988 5.54837 9.79533 5.4968 9.8436C5.44523 9.89186 5.37528 9.91897 5.30234 9.91897Z" fill="white"/>
<path d="M4.20078 8.88994C4.12785 8.88994 4.0579 8.86282 4.00633 8.81456C3.95475 8.7663 3.92578 8.70084 3.92578 8.63258V6.57376C3.92578 6.5055 3.95475 6.44005 4.00633 6.39178C4.0579 6.34352 4.12785 6.31641 4.20078 6.31641C4.27372 6.31641 4.34366 6.34352 4.39524 6.39178C4.44681 6.44005 4.47578 6.5055 4.47578 6.57376V8.63258C4.47578 8.70084 4.44681 8.7663 4.39524 8.81456C4.34366 8.86282 4.27372 8.88994 4.20078 8.88994Z" fill="white"/>
</svg>
