<svg width="6" height="6" viewBox="0 0 6 6" fill="none" xmlns="http://www.w3.org/2000/svg">
<path d="M3 6C3.59334 6 4.17336 5.82405 4.66671 5.49441C5.16006 5.16476 5.54457 4.69623 5.77164 4.14805C5.9987 3.59987 6.05811 2.99667 5.94235 2.41473C5.8266 1.83279 5.54088 1.29824 5.12132 0.878681C4.70176 0.459123 4.16721 0.173401 3.58527 0.0576458C3.00333 -0.0581098 2.40013 0.00129986 1.85195 0.228363C1.30377 0.455426 0.835235 0.839943 0.505591 1.33329C0.175947 1.82664 0 2.40666 0 3C0 3.79565 0.31607 4.55871 0.878679 5.12132C1.44129 5.68393 2.20435 6 3 6V6ZM1.63312 2.30438L3 3.67313L4.36687 2.30438L4.63312 2.57063L3.13312 4.07063C3.11569 4.0882 3.09496 4.10215 3.07211 4.11167C3.04926 4.12119 3.02475 4.12609 3 4.12609C2.97525 4.12609 2.95074 4.12119 2.92789 4.11167C2.90504 4.10215 2.88431 4.0882 2.86687 4.07063L1.36687 2.57063L1.63312 2.30438Z" fill="#FF6767"/>
</svg>
