<svg width="10" height="10" viewBox="0 0 10 10" fill="none" xmlns="http://www.w3.org/2000/svg">
<path d="M9 1.33325H1C0.734784 1.33325 0.48043 1.43861 0.292893 1.62615C0.105357 1.81368 0 2.06804 0 2.33325V8.99992C0 9.26514 0.105357 9.51949 0.292893 9.70703C0.48043 9.89456 0.734784 9.99992 1 9.99992H9C9.26522 9.99992 9.51957 9.89456 9.70711 9.70703C9.89464 9.51949 10 9.26514 10 8.99992V2.33325C10 2.06804 9.89464 1.81368 9.70711 1.62615C9.51957 1.43861 9.26522 1.33325 9 1.33325ZM1 1.99992H9C9.08841 1.99992 9.17319 2.03504 9.2357 2.09755C9.29821 2.16006 9.33333 2.24485 9.33333 2.33325V2.99992H0.666667V2.33325C0.666667 2.24485 0.701786 2.16006 0.764298 2.09755C0.82681 2.03504 0.911595 1.99992 1 1.99992ZM9 9.33325H1C0.911595 9.33325 0.82681 9.29813 0.764298 9.23562C0.701786 9.17311 0.666667 9.08832 0.666667 8.99992V3.66659H9.33333V8.99992C9.33333 9.08832 9.29821 9.17311 9.2357 9.23562C9.17319 9.29813 9.08841 9.33325 9 9.33325Z" fill="black"/>
<path d="M2.66732 0.666667H4.00065C4.08906 0.666667 4.17384 0.631548 4.23635 0.569036C4.29887 0.506523 4.33398 0.421739 4.33398 0.333333C4.33398 0.244928 4.29887 0.160143 4.23635 0.0976311C4.17384 0.0351189 4.08906 0 4.00065 0H2.66732C2.57891 0 2.49413 0.0351189 2.43162 0.0976311C2.3691 0.160143 2.33398 0.244928 2.33398 0.333333C2.33398 0.421739 2.3691 0.506523 2.43162 0.569036C2.49413 0.631548 2.57891 0.666667 2.66732 0.666667Z" fill="black"/>
<path d="M5.99935 0.666667H7.33268C7.42109 0.666667 7.50587 0.631548 7.56838 0.569036C7.6309 0.506523 7.66602 0.421739 7.66602 0.333333C7.66602 0.244928 7.6309 0.160143 7.56838 0.0976311C7.50587 0.0351189 7.42109 0 7.33268 0H5.99935C5.91094 0 5.82616 0.0351189 5.76365 0.0976311C5.70113 0.160143 5.66602 0.244928 5.66602 0.333333C5.66602 0.421739 5.70113 0.506523 5.76365 0.569036C5.82616 0.631548 5.91094 0.666667 5.99935 0.666667Z" fill="black"/>
<path d="M4.99935 5.66667C5.18344 5.66667 5.33268 5.51743 5.33268 5.33333C5.33268 5.14924 5.18344 5 4.99935 5C4.81525 5 4.66602 5.14924 4.66602 5.33333C4.66602 5.51743 4.81525 5.66667 4.99935 5.66667Z" fill="black"/>
<path d="M2.66732 5.66667C2.85141 5.66667 3.00065 5.51743 3.00065 5.33333C3.00065 5.14924 2.85141 5 2.66732 5C2.48322 5 2.33398 5.14924 2.33398 5.33333C2.33398 5.51743 2.48322 5.66667 2.66732 5.66667Z" fill="black"/>
<path d="M7.33333 5.66667C7.51743 5.66667 7.66667 5.51743 7.66667 5.33333C7.66667 5.14924 7.51743 5 7.33333 5C7.14924 5 7 5.14924 7 5.33333C7 5.51743 7.14924 5.66667 7.33333 5.66667Z" fill="black"/>
<path d="M4.99935 7.99992C5.18344 7.99992 5.33268 7.85068 5.33268 7.66659C5.33268 7.48249 5.18344 7.33325 4.99935 7.33325C4.81525 7.33325 4.66602 7.48249 4.66602 7.66659C4.66602 7.85068 4.81525 7.99992 4.99935 7.99992Z" fill="black"/>
<path d="M2.66732 7.99992C2.85141 7.99992 3.00065 7.85068 3.00065 7.66659C3.00065 7.48249 2.85141 7.33325 2.66732 7.33325C2.48322 7.33325 2.33398 7.48249 2.33398 7.66659C2.33398 7.85068 2.48322 7.99992 2.66732 7.99992Z" fill="black"/>
<path d="M7.33333 7.99992C7.51743 7.99992 7.66667 7.85068 7.66667 7.66659C7.66667 7.48249 7.51743 7.33325 7.33333 7.33325C7.14924 7.33325 7 7.48249 7 7.66659C7 7.85068 7.14924 7.99992 7.33333 7.99992Z" fill="black"/>
</svg>
