<svg width="25" height="24" viewBox="0 0 25 24" fill="none" xmlns="http://www.w3.org/2000/svg">
<path d="M12.4217 0C5.62197 0 0.050993 4.64478 0.000555632 10.3579C-0.0315412 13.8884 1.32566 16.4286 4.40689 18.5836C4.45274 18.6249 4.49861 18.6753 4.5307 18.712C4.62238 20.0142 3.82 21.4906 2.13266 23.0954L2.01343 23.2101C1.87586 23.3476 1.83921 23.554 1.92174 23.7282C1.9951 23.8932 2.16018 23.9941 2.33899 23.9941C2.35275 23.9941 2.36191 24.0033 2.37567 23.9987C5.90622 23.7236 9.5056 21.1284 10.1475 20.647L10.4272 20.6195C10.8353 20.6745 12.0045 20.7845 12.4263 20.7845C19.2766 20.7845 24.8475 16.1031 24.8475 10.3946C24.8429 4.68146 19.272 0 12.4217 0ZM12.3897 19.8033C11.9953 19.8033 10.7252 19.7116 10.4914 19.6703C10.441 19.6612 10.3905 19.6612 10.3401 19.6703L9.87698 19.7437C9.79905 19.7574 9.73026 19.7895 9.66606 19.8354C9.63397 19.8629 6.71781 22.1096 3.62283 22.857C4.96627 21.3256 5.57153 19.8629 5.42021 18.5011C5.41564 18.4644 5.40645 18.4278 5.39272 18.3911C5.37436 18.3406 5.31933 18.1893 4.99839 17.8913C4.98003 17.8775 4.96627 17.8638 4.94795 17.85C2.08682 15.8555 0.876325 13.6179 0.908422 10.3625C0.954275 5.15372 6.11715 0.912447 12.4126 0.912447C18.7584 0.912447 23.9168 5.14912 23.9168 10.3579C23.9259 15.5666 18.7676 19.8033 12.3897 19.8033Z" fill="white"/>
<path d="M7.14656 8.86328C6.13324 8.86328 5.3125 9.68403 5.3125 10.6974C5.3125 11.7107 6.13324 12.5314 7.14656 12.5314C8.15987 12.5314 8.98061 11.7107 8.98061 10.6974C8.98061 9.68403 8.15987 8.86328 7.14656 8.86328ZM7.14656 11.6144C6.64218 11.6144 6.22953 11.2017 6.22953 10.6974C6.22953 10.193 6.64218 9.78031 7.14656 9.78031C7.65093 9.78031 8.06359 10.193 8.06359 10.6974C8.06359 11.2017 7.65093 11.6144 7.14656 11.6144Z" fill="white"/>
<path d="M12.1935 8.86328C11.1801 8.86328 10.3594 9.68403 10.3594 10.6974C10.3594 11.7107 11.1801 12.5314 12.1935 12.5314C13.2068 12.5314 14.0275 11.7107 14.0275 10.6974C14.0275 9.68403 13.2068 8.86328 12.1935 8.86328ZM12.1935 11.6144C11.6891 11.6144 11.2764 11.2017 11.2764 10.6974C11.2764 10.193 11.6891 9.78031 12.1935 9.78031C12.6978 9.78031 13.1105 10.193 13.1105 10.6974C13.1105 11.2017 12.6978 11.6144 12.1935 11.6144Z" fill="white"/>
<path d="M17.2364 8.86328C16.2231 8.86328 15.4023 9.68403 15.4023 10.6974C15.4023 11.7107 16.2231 12.5314 17.2364 12.5314C18.2497 12.5314 19.0705 11.7107 19.0705 10.6974C19.0705 9.68403 18.2497 8.86328 17.2364 8.86328ZM17.2364 11.6144C16.7321 11.6144 16.3194 11.2017 16.3194 10.6974C16.3194 10.193 16.7321 9.78031 17.2364 9.78031C17.7408 9.78031 18.1534 10.193 18.1534 10.6974C18.1534 11.2017 17.7408 11.6144 17.2364 11.6144Z" fill="white"/>
</svg>
