<svg width="12" height="15" viewBox="0 0 12 15" fill="none" xmlns="http://www.w3.org/2000/svg">
<path d="M11.4173 4.17461C11.4174 4.08858 11.3837 4.00594 11.3236 3.94443L7.55179 0.0986519C7.52114 0.0673833 7.48456 0.0425504 7.44418 0.0256099C7.40381 0.00866946 7.36046 -3.73939e-05 7.31667 1.20712e-07H1.6442C1.20813 1.20712e-07 0.789921 0.173227 0.481574 0.481574C0.173227 0.789921 0 1.20813 0 1.6442V13.3558C0 13.7919 0.173227 14.2101 0.481574 14.5184C0.789921 14.8268 1.20813 15 1.6442 15H9.7731C10.2092 15 10.6274 14.8268 10.9357 14.5184C11.2441 14.2101 11.4173 13.7919 11.4173 13.3558V4.17461ZM7.6192 1.10326L10.462 4.00362H8.11246C7.98164 4.00362 7.85618 3.95165 7.76368 3.85915C7.67117 3.76664 7.6192 3.64118 7.6192 3.51036V1.10326ZM9.7731 14.3423H1.6442C1.38256 14.3423 1.13163 14.2384 0.946623 14.0534C0.761615 13.8684 0.657679 13.6174 0.657679 13.3558V1.63926C0.657679 1.37762 0.761615 1.1267 0.946623 0.94169C1.13163 0.756682 1.38256 0.652746 1.6442 0.652746H6.96153V3.51036C6.96153 3.81561 7.08279 4.10835 7.29863 4.32419C7.51447 4.54004 7.80722 4.6613 8.11246 4.6613H10.7596V13.3558C10.7596 13.6174 10.6557 13.8684 10.4707 14.0534C10.2857 14.2384 10.0347 14.3423 9.7731 14.3423Z" fill="black"/>
<path d="M8.9162 7.21143H4.48509C4.39788 7.21143 4.31423 7.24607 4.25257 7.30774C4.1909 7.36941 4.15625 7.45305 4.15625 7.54026C4.15625 7.62748 4.1909 7.71112 4.25257 7.77279C4.31423 7.83446 4.39788 7.8691 4.48509 7.8691H8.9162C9.00341 7.8691 9.08705 7.83446 9.14872 7.77279C9.21039 7.71112 9.24504 7.62748 9.24504 7.54026C9.24504 7.45305 9.21039 7.36941 9.14872 7.30774C9.08705 7.24607 9.00341 7.21143 8.9162 7.21143Z" fill="black"/>
<path d="M2.50107 7.04694C2.37025 7.04694 2.24479 7.09891 2.15228 7.19142C2.05978 7.28392 2.00781 7.40938 2.00781 7.5402C2.00781 7.67102 2.05978 7.79649 2.15228 7.88899C2.24479 7.98149 2.37025 8.03346 2.50107 8.03346H2.50929C2.64011 8.03346 2.76558 7.98149 2.85808 7.88899C2.95058 7.79649 3.00255 7.67102 3.00255 7.5402C3.00256 7.47473 2.98953 7.40991 2.96423 7.34952C2.93893 7.28913 2.90186 7.23439 2.85518 7.18848C2.80851 7.14256 2.75316 7.1064 2.69236 7.0821C2.63156 7.05781 2.56654 7.04585 2.50107 7.04694Z" fill="black"/>
<path d="M8.9162 9.34961H4.48509C4.39788 9.34961 4.31423 9.38426 4.25257 9.44592C4.1909 9.50759 4.15625 9.59123 4.15625 9.67845C4.15625 9.76566 4.1909 9.8493 4.25257 9.91097C4.31423 9.97264 4.39788 10.0073 4.48509 10.0073H8.9162C9.00341 10.0073 9.08705 9.97264 9.14872 9.91097C9.21039 9.8493 9.24504 9.76566 9.24504 9.67845C9.24504 9.59123 9.21039 9.50759 9.14872 9.44592C9.08705 9.38426 9.00341 9.34961 8.9162 9.34961Z" fill="black"/>
<path d="M2.50107 9.18464C2.37025 9.18464 2.24479 9.23661 2.15228 9.32911C2.05978 9.42162 2.00781 9.54708 2.00781 9.6779C2.00781 9.80872 2.05978 9.93418 2.15228 10.0267C2.24479 10.1192 2.37025 10.1712 2.50107 10.1712H2.50929C2.64011 10.1712 2.76558 10.1192 2.85808 10.0267C2.95058 9.93418 3.00255 9.80872 3.00255 9.6779C3.00256 9.61242 2.98953 9.5476 2.96423 9.48722C2.93893 9.42683 2.90186 9.37208 2.85518 9.32617C2.80851 9.28026 2.75316 9.2441 2.69236 9.2198C2.63156 9.1955 2.56654 9.18355 2.50107 9.18464Z" fill="black"/>
<path d="M8.9162 11.4858H4.48509C4.39788 11.4858 4.31423 11.5205 4.25257 11.5822C4.1909 11.6438 4.15625 11.7275 4.15625 11.8147C4.15625 11.9019 4.1909 11.9855 4.25257 12.0472C4.31423 12.1089 4.39788 12.1435 4.48509 12.1435H8.9162C9.00341 12.1435 9.08705 12.1089 9.14872 12.0472C9.21039 11.9855 9.24504 11.9019 9.24504 11.8147C9.24504 11.7275 9.21039 11.6438 9.14872 11.5822C9.08705 11.5205 9.00341 11.4858 8.9162 11.4858Z" fill="black"/>
<path d="M2.50107 11.3223C2.37025 11.3223 2.24479 11.3743 2.15228 11.4668C2.05978 11.5593 2.00781 11.6848 2.00781 11.8156C2.00781 11.9464 2.05978 12.0719 2.15228 12.1644C2.24479 12.2569 2.37025 12.3089 2.50107 12.3089H2.50929C2.64011 12.3089 2.76558 12.2569 2.85808 12.1644C2.95058 12.0719 3.00255 11.9464 3.00255 11.8156C3.00256 11.7501 2.98953 11.6853 2.96423 11.6249C2.93893 11.5645 2.90186 11.5098 2.85518 11.4639C2.80851 11.418 2.75316 11.3818 2.69236 11.3575C2.63156 11.3332 2.56654 11.3212 2.50107 11.3223Z" fill="black"/>
</svg>
