<svg width="12" height="12" viewBox="0 0 12 12" fill="none" xmlns="http://www.w3.org/2000/svg">
<path fill-rule="evenodd" clip-rule="evenodd" d="M5.25 5.625H3.1875C2.98039 5.625 2.8125 5.79289 2.8125 6C2.8125 6.20711 2.98039 6.375 3.1875 6.375H5.25C5.45711 6.375 5.625 6.54289 5.625 6.75V8.8125C5.625 9.01961 5.79289 9.1875 6 9.1875C6.20711 9.1875 6.375 9.01961 6.375 8.8125V6.75C6.375 6.54289 6.54289 6.375 6.75 6.375H8.8125C9.01961 6.375 9.1875 6.20711 9.1875 6C9.1875 5.79289 9.01961 5.625 8.8125 5.625H6.75C6.54289 5.625 6.375 5.45711 6.375 5.25V3.1875C6.375 2.98039 6.20711 2.8125 6 2.8125C5.79289 2.8125 5.625 2.98039 5.625 3.1875V5.25C5.625 5.45711 5.45711 5.625 5.25 5.625Z" fill="white"/>
<path d="M6 11.25C8.8995 11.25 11.25 8.8995 11.25 6C11.25 3.10051 8.8995 0.75 6 0.75C3.10051 0.75 0.75 3.10051 0.75 6C0.75 8.8995 3.10051 11.25 6 11.25ZM6 12C2.68629 12 0 9.31371 0 6C0 2.68629 2.68629 0 6 0C9.31371 0 12 2.68629 12 6C12 9.31371 9.31371 12 6 12Z" fill="white"/>
</svg>
