<svg width="13" height="13" viewBox="0 0 13 13" fill="none" xmlns="http://www.w3.org/2000/svg">
<path d="M8.30552 2.92835C8.11394 2.73677 7.81289 2.73677 7.62131 2.92835C7.42973 3.11993 7.42973 3.42098 7.62131 3.61256L8.30552 4.29677H3.52973C3.26973 4.29677 3.05078 4.51572 3.05078 4.77572C3.05078 5.03572 3.26973 5.25467 3.52973 5.25467H8.30552L7.62131 5.93888C7.42973 6.13046 7.42973 6.43151 7.62131 6.62309C7.7171 6.71888 7.84025 6.75993 7.96341 6.75993C8.08657 6.75993 8.20973 6.71888 8.30552 6.62309L9.81078 5.11783C9.90657 5.02204 9.94762 4.89888 9.94762 4.77572C9.94762 4.65256 9.89289 4.5294 9.81078 4.43362L8.30552 2.92835Z" fill="black"/>
<path d="M9.46966 7.7455H4.69387L5.37808 7.06129C5.56966 6.86971 5.56966 6.56866 5.37808 6.37708C5.1865 6.1855 4.88545 6.1855 4.69387 6.37708L3.18861 7.88235C2.99703 8.07392 2.99703 8.37498 3.18861 8.56656L4.69387 10.0718C4.78966 10.1676 4.91282 10.2087 5.03597 10.2087C5.15913 10.2087 5.28229 10.1676 5.37808 10.0718C5.56966 9.88024 5.56966 9.57919 5.37808 9.38761L4.69387 8.7034H9.46966C9.72966 8.7034 9.94861 8.48445 9.94861 8.22445C9.94861 7.96445 9.74334 7.7455 9.46966 7.7455Z" fill="black"/>
<path d="M6.5 0C2.91474 0 0 2.91474 0 6.5C0 10.0853 2.91474 13 6.5 13C10.0853 13 13 10.0853 13 6.5C13 2.91474 10.0853 0 6.5 0ZM6.5 12.0421C3.44842 12.0421 0.957895 9.55158 0.957895 6.5C0.957895 3.44842 3.44842 0.957895 6.5 0.957895C9.55158 0.957895 12.0421 3.44842 12.0421 6.5C12.0421 9.55158 9.55158 12.0421 6.5 12.0421Z" fill="black"/>
</svg>
