<svg width="10" height="12" viewBox="0 0 10 12" fill="none" xmlns="http://www.w3.org/2000/svg">
<path d="M8.24321 12H1.21757C0.546111 12 0 11.4539 0 10.7824V1.21757C0 0.546111 0.546311 0 1.21757 0H8.24321C8.91065 0 9.45376 0.546111 9.45376 1.21757V10.7822C9.45376 11.4537 8.91065 12 8.24321 12ZM1.21757 0.40111C0.767323 0.40111 0.40111 0.767323 0.40111 1.21757V10.7822C0.40111 11.2325 0.767323 11.5987 1.21757 11.5987H8.24321C8.68944 11.5987 9.05265 11.2325 9.05265 10.7822V1.21757C9.05265 0.767323 8.68944 0.40111 8.24321 0.40111H1.21757Z" fill="black"/>
<path d="M8.02027 3.54662H1.55016C1.43946 3.54662 1.34961 3.45677 1.34961 3.34606C1.34961 3.23536 1.43946 3.14551 1.55016 3.14551H8.02047C8.13117 3.14551 8.22102 3.23536 8.22102 3.34606C8.22102 3.45677 8.13117 3.54662 8.02027 3.54662Z" fill="black"/>
<path d="M7.45049 5.0681H1.55016C1.43946 5.0681 1.34961 4.97825 1.34961 4.86755C1.34961 4.75684 1.43946 4.66699 1.55016 4.66699H7.45049C7.56119 4.66699 7.65104 4.75684 7.65104 4.86755C7.65104 4.97825 7.56119 5.0681 7.45049 5.0681Z" fill="black"/>
<path d="M6.116 6.59691H1.55016C1.43946 6.59691 1.34961 6.50706 1.34961 6.39636C1.34961 6.28565 1.43946 6.1958 1.55016 6.1958H6.1162C6.2269 6.1958 6.31675 6.28565 6.31675 6.39636C6.31675 6.50706 6.2269 6.59691 6.116 6.59691Z" fill="black"/>
<path d="M4.73117 8.07591H1.55016C1.43946 8.07591 1.34961 7.98607 1.34961 7.87536C1.34961 7.76465 1.43946 7.6748 1.55016 7.6748H4.73117C4.84187 7.6748 4.93172 7.76465 4.93172 7.87536C4.93172 7.98607 4.84187 8.07591 4.73117 8.07591Z" fill="black"/>
</svg>
