<svg width="19" height="17" viewBox="0 0 19 17" fill="none" xmlns="http://www.w3.org/2000/svg">
<path d="M5.77999 1.49049C5.20793 0.557087 4.21249 0 3.1165 0C2.54316 0 1.98029 0.159168 1.4891 0.459961C0.0223581 1.3587 -0.439956 3.28348 0.459 4.75086L3.77949 10.1482L9.10069 6.88828L5.77999 1.49049ZM0.951264 4.44878C0.218964 3.25331 0.59549 1.68495 1.79096 0.952439C2.19145 0.707269 2.64969 0.577411 3.1165 0.577411C4.00968 0.577411 4.82135 1.0316 5.28752 1.79256L8.30528 6.69788L3.96925 9.35453L0.951264 4.44878Z" fill="white"/>
<path d="M4.90595 1.90767C4.60687 1.41263 4.13279 1.06391 3.57142 0.925495C3.01006 0.787293 2.42815 0.875648 1.93311 1.17494L2.23197 1.66935C2.59481 1.44985 3.02139 1.38503 3.433 1.48643C3.84462 1.58805 4.19226 1.8437 4.41154 2.20675L6.7552 6.08433L7.24961 5.78567L4.90595 1.90767Z" fill="white"/>
<path d="M18.5274 2.17185C17.9535 1.25257 16.9629 0.703613 15.8781 0.703613C15.2951 0.703613 14.7247 0.867488 14.2276 1.17769L8.85864 4.54353L12.1635 9.83715L17.5333 6.47109C18.9925 5.55973 19.4386 3.63132 18.5274 2.17185ZM17.2269 5.98118L12.3471 9.04024L9.65405 4.72688L14.5343 1.6676C14.9391 1.41495 15.4036 1.28145 15.8783 1.28145C16.7625 1.28145 17.5699 1.72879 18.0377 2.47778C18.7799 3.66704 18.4166 5.23882 17.2269 5.98118Z" fill="white"/>
<path d="M17.3243 2.92842C17.7834 3.67356 17.5508 4.65338 16.8055 5.11291L12.948 7.48909L13.2509 7.98093L17.1086 5.60453C18.1248 4.97813 18.4423 3.64189 17.8161 2.62549L17.3243 2.92842Z" fill="white"/>
<path d="M7.87695 9.54257C7.87695 10.0607 8.29862 10.4824 8.81677 10.4824C9.33513 10.4824 9.7568 10.0607 9.7568 9.54257C9.7568 9.02421 9.33513 8.60254 8.81677 8.60254C8.29862 8.60254 7.87695 9.02421 7.87695 9.54257ZM8.81677 9.18016C9.01659 9.18016 9.17875 9.34275 9.17875 9.54236C9.17875 9.74196 9.01637 9.90412 8.81677 9.90412C8.61717 9.90412 8.45479 9.74174 8.45479 9.54236C8.45458 9.34275 8.61717 9.18016 8.81677 9.18016Z" fill="white"/>
<path d="M10.9828 10.7114C10.4644 10.7114 10.0427 11.1331 10.0427 11.6515C10.0427 12.1696 10.4644 12.5913 10.9828 12.5913C11.5009 12.5913 11.9226 12.1696 11.9226 11.6515C11.9224 11.1329 11.5009 10.7114 10.9828 10.7114ZM10.9828 12.0134C10.7829 12.0134 10.6206 11.8511 10.6206 11.6515C10.6206 11.4519 10.7832 11.2893 10.9828 11.2893C11.1824 11.2893 11.3445 11.4519 11.3445 11.6515C11.3445 11.8511 11.1821 12.0134 10.9828 12.0134Z" fill="white"/>
<path d="M8.81677 12.1475C8.29862 12.1475 7.87695 12.5691 7.87695 13.0875C7.87695 13.6056 8.29862 14.0273 8.81677 14.0273C9.33513 14.0273 9.7568 13.6056 9.7568 13.0875C9.75659 12.5689 9.33513 12.1475 8.81677 12.1475ZM8.81677 13.4493C8.61717 13.4493 8.45479 13.2869 8.45479 13.0873C8.45479 12.8877 8.61738 12.7251 8.81677 12.7251C9.01659 12.7251 9.17875 12.8877 9.17875 13.0873C9.17875 13.2869 9.01637 13.4493 8.81677 13.4493Z" fill="white"/>
<path d="M10.684 14.3125C10.1658 14.3125 9.74414 14.7342 9.74414 15.2523C9.74414 15.7705 10.1658 16.1921 10.684 16.1921C11.2021 16.1921 11.6238 15.7705 11.6238 15.2523C11.6238 14.7342 11.2021 14.3125 10.684 14.3125ZM10.684 15.6145C10.4841 15.6145 10.3218 15.4519 10.3218 15.2523C10.3218 15.0527 10.4844 14.8903 10.684 14.8903C10.8836 14.8903 11.0462 15.0527 11.0462 15.2523C11.0462 15.4519 10.8838 15.6145 10.684 15.6145Z" fill="white"/>
<path d="M6.50476 10.7124C5.98661 10.7124 5.56494 11.1341 5.56494 11.6524C5.56494 12.1706 5.98661 12.5923 6.50476 12.5923C7.02291 12.5923 7.44458 12.1706 7.44458 11.6524C7.44458 11.1341 7.02291 10.7124 6.50476 10.7124ZM6.50476 12.0144C6.30494 12.0144 6.14278 11.8518 6.14278 11.6524C6.14278 11.4526 6.30516 11.2905 6.50476 11.2905C6.70436 11.2905 6.86695 11.4528 6.86695 11.6524C6.86695 11.852 6.70457 12.0144 6.50476 12.0144Z" fill="white"/>
</svg>
