<svg width="22" height="27" viewBox="0 0 22 27" fill="none" xmlns="http://www.w3.org/2000/svg">
<path d="M4.22863 12.8567H14.8331C15.0521 12.8567 15.2297 12.6791 15.2297 12.4601C15.2297 12.241 15.0521 12.0635 14.8331 12.0635H4.22863C4.00959 12.0635 3.83203 12.241 3.83203 12.4601C3.83203 12.6791 4.00959 12.8567 4.22863 12.8567Z" fill="white"/>
<path d="M4.22863 15.6013H14.8331C15.0521 15.6013 15.2297 15.4237 15.2297 15.2047C15.2297 14.9857 15.0521 14.8081 14.8331 14.8081H4.22863C4.00959 14.8081 3.83203 14.9857 3.83203 15.2047C3.83203 15.4237 4.00959 15.6013 4.22863 15.6013Z" fill="white"/>
<path d="M4.22863 18.3464H14.8331C15.0521 18.3464 15.2297 18.1689 15.2297 17.9498C15.2297 17.7308 15.0521 17.5532 14.8331 17.5532H4.22863C4.00959 17.5532 3.83203 17.7308 3.83203 17.9498C3.83203 18.1689 4.00959 18.3464 4.22863 18.3464Z" fill="white"/>
<path d="M4.22863 21.091H14.8331C15.0521 21.091 15.2297 20.9135 15.2297 20.6944C15.2297 20.4754 15.0521 20.2979 14.8331 20.2979H4.22863C4.00959 20.2979 3.83203 20.4754 3.83203 20.6944C3.83203 20.9135 4.00959 21.091 4.22863 21.091Z" fill="white"/>
<path d="M6.1466 8.83439H7.92176V10.6081C7.92176 10.8271 8.09932 11.0047 8.31836 11.0047H10.7446C10.9637 11.0047 11.1412 10.8271 11.1412 10.6081V8.83439H12.9164C13.1355 8.83439 13.313 8.65683 13.313 8.4378V6.01318C13.313 5.79414 13.1355 5.61658 12.9164 5.61658H11.1412V3.84289C11.1412 3.62385 10.9637 3.44629 10.7446 3.44629H8.31836C8.09932 3.44629 7.92176 3.62385 7.92176 3.84289V5.61658H6.1466C5.92756 5.61658 5.75 5.79414 5.75 6.01318V8.4378C5.75 8.65683 5.92756 8.83439 6.1466 8.83439ZM6.54319 6.40977H8.31836C8.53739 6.40977 8.71496 6.23221 8.71496 6.01318V4.23948H10.348V6.01318C10.348 6.23221 10.5256 6.40977 10.7446 6.40977H12.5198V8.0412H10.7446C10.5256 8.0412 10.348 8.21876 10.348 8.4378V10.2115H8.71496V8.4378C8.71496 8.21876 8.53739 8.0412 8.31836 8.0412H6.54319V6.40977Z" fill="white"/>
<path d="M21.6034 2.29743H19.0625V0.396596C19.0625 0.177562 18.885 0 18.6659 0H0.396596C0.177562 0 0 0.177562 0 0.396596V24.1404C0 24.3594 0.177562 24.537 0.396596 24.537H2.93952V26.44C2.93952 26.659 3.11708 26.8366 3.33611 26.8366H21.6034C21.8224 26.8366 22 26.659 22 26.44V2.69402C22 2.47499 21.8225 2.29743 21.6034 2.29743ZM0.793193 0.793193H18.2694V23.7438H3.33611H0.793193V0.793193ZM21.2068 26.0434H3.73271V24.537H18.666H18.666C18.8851 24.537 19.0626 24.3594 19.0626 24.1404V3.09062H21.2069V26.0434H21.2068Z" fill="white"/>
</svg>
