<svg width="13" height="14" viewBox="0 0 13 14" fill="none" xmlns="http://www.w3.org/2000/svg">
<path d="M1.94787 0C0.719836 0.00452329 -0.00576462 1.01511 3.44993e-05 1.97049V8.36721C3.44993e-05 9.50337 0.579704 10.5627 1.53519 11.1648L4.39981 12.974C5.28408 13.5313 6.49748 12.8501 6.49748 11.7986V10.4862H7.79773C8.86719 10.4862 9.75191 9.60052 9.75191 8.52213V7.86914C9.75225 7.78252 9.73556 7.69668 9.7028 7.6166C9.67004 7.53652 9.62186 7.46378 9.56106 7.40258C9.50025 7.34138 9.42801 7.29295 9.34853 7.26007C9.26904 7.22719 9.18389 7.21053 9.09798 7.21104C9.0126 7.21137 8.92813 7.22866 8.84938 7.26191C8.77063 7.29517 8.69915 7.34374 8.63901 7.40485C8.57888 7.46596 8.53126 7.53842 8.4989 7.61808C8.46654 7.69774 8.45006 7.78306 8.45039 7.86914V8.52213C8.45039 8.89195 8.16448 9.17512 7.79773 9.17512H6.49748V4.58756C6.49748 3.53172 5.87143 2.57462 4.90899 2.1587L2.95099 1.31238H7.79773C8.16437 1.31239 8.45039 1.59566 8.45039 1.96537V2.62348C8.45169 2.98376 8.74067 3.27522 9.09798 3.27646C9.45715 3.27789 9.75068 2.98565 9.75191 2.62348V1.96537C9.75191 0.887105 8.86706 2.81886e-05 7.79773 0H1.94787ZM1.30028 2.02298L4.396 3.36353C4.88362 3.57425 5.19723 4.05262 5.19723 4.58756V9.83323V11.7986C5.19723 11.8886 5.16758 11.9091 5.09183 11.8613L2.22087 10.0509C1.64405 9.68737 1.30028 9.05309 1.30028 8.36721V2.02298ZM11.028 3.27646C10.8634 3.28277 10.7073 3.35187 10.5912 3.4698C10.5305 3.53072 10.4823 3.60314 10.4494 3.6829C10.4165 3.76266 10.3996 3.84819 10.3996 3.93457C10.3996 4.02095 10.4165 4.10648 10.4494 4.18624C10.4823 4.26601 10.5305 4.33843 10.5912 4.39935L10.7779 4.58756H8.45039C8.36459 4.58722 8.27956 4.60401 8.20022 4.63697C8.12089 4.66992 8.04881 4.71838 7.98814 4.77956C7.92747 4.84074 7.8794 4.91342 7.84672 4.99342C7.81404 5.07342 7.79739 5.15915 7.79773 5.24567C7.79806 5.33176 7.81521 5.41694 7.84819 5.49634C7.88117 5.57575 7.92933 5.64783 7.98994 5.70846C8.05054 5.7691 8.1224 5.8171 8.20141 5.84974C8.28041 5.88237 8.36502 5.89899 8.45039 5.89866H10.7842L10.5912 6.09327C10.4701 6.2161 10.4021 6.38228 10.4021 6.55549C10.4021 6.7287 10.4701 6.89487 10.5912 7.0177C10.713 7.13983 10.8778 7.20838 11.0496 7.20838C11.2214 7.20838 11.3862 7.13983 11.508 7.0177L12.774 5.73989C12.8446 5.67864 12.9013 5.60282 12.9402 5.51755C12.9792 5.43228 12.9996 5.33956 13 5.24567C13.0003 5.15352 12.9814 5.06233 12.9444 4.97805C12.9074 4.89377 12.8533 4.81831 12.7854 4.75657C12.7833 4.75442 12.7811 4.75228 12.7789 4.75016L11.5079 3.4698C11.4452 3.40621 11.3703 3.35625 11.2878 3.323C11.2053 3.28975 11.1169 3.27391 11.028 3.27646Z" fill="black"/>
</svg>
