<svg width="13" height="13" viewBox="0 0 13 13" fill="none" xmlns="http://www.w3.org/2000/svg">
<path d="M13 12.5456L9.06207 8.60447C9.95213 7.59553 10.4146 6.2798 10.3515 4.93586C10.2884 3.59191 9.70481 2.32527 8.72418 1.40411C7.74355 0.482955 6.44292 -0.0203958 5.09766 0.000633359C3.7524 0.0216625 2.46814 0.565421 1.51678 1.51678C0.565421 2.46814 0.0216625 3.7524 0.000633359 5.09766C-0.0203958 6.44292 0.482955 7.74355 1.40411 8.72418C2.32527 9.70481 3.59191 10.2884 4.93586 10.3515C6.2798 10.4146 7.59553 9.95213 8.60447 9.06207L12.5456 13L13 12.5456ZM5.20148 9.71302C4.30919 9.71302 3.43693 9.44843 2.69501 8.95269C1.95309 8.45696 1.37483 7.75235 1.03337 6.92798C0.691898 6.1036 0.602554 5.19648 0.776633 4.32133C0.950712 3.44617 1.38039 2.64229 2.01134 2.01134C2.64229 1.38039 3.44617 0.950712 4.32133 0.776633C5.19648 0.602554 6.1036 0.691898 6.92798 1.03337C7.75235 1.37483 8.45696 1.95309 8.95269 2.69501C9.44843 3.43693 9.71302 4.30919 9.71302 5.20148C9.71302 6.39802 9.2377 7.54555 8.39162 8.39162C7.54555 9.2377 6.39802 9.71302 5.20148 9.71302Z" fill="#D2D2D2"/>
</svg>
