<svg width="18" height="23" viewBox="0 0 18 23" fill="none" xmlns="http://www.w3.org/2000/svg">
<path d="M15.6951 22.8481H2.31826C1.0398 22.8481 0 21.8083 0 20.5298V2.31826C0 1.0398 1.04018 0 2.31826 0H15.6951C16.9659 0 18 1.0398 18 2.31826V20.5294C18 21.8079 16.9659 22.8481 15.6951 22.8481ZM2.31826 0.763715C1.46099 0.763715 0.763715 1.46099 0.763715 2.31826V20.5294C0.763715 21.3867 1.46099 22.084 2.31826 22.084H15.6951C16.5447 22.084 17.2363 21.3867 17.2363 20.5294V2.31826C17.2363 1.46099 16.5447 0.763715 15.6951 0.763715H2.31826Z" fill="white"/>
<path d="M15.2713 6.75126H2.95217C2.74138 6.75126 2.57031 6.58019 2.57031 6.36941C2.57031 6.15862 2.74138 5.98755 2.95217 5.98755H15.2717C15.4824 5.98755 15.6535 6.15862 15.6535 6.36941C15.6535 6.58019 15.4824 6.75126 15.2713 6.75126Z" fill="white"/>
<path d="M14.1864 9.64946H2.95217C2.74138 9.64946 2.57031 9.47839 2.57031 9.2676C2.57031 9.05681 2.74138 8.88574 2.95217 8.88574H14.1864C14.3972 8.88574 14.5683 9.05681 14.5683 9.2676C14.5683 9.47839 14.3972 9.64946 14.1864 9.64946Z" fill="white"/>
<path d="M11.6455 12.5608H2.95217C2.74138 12.5608 2.57031 12.3898 2.57031 12.179C2.57031 11.9682 2.74138 11.7971 2.95217 11.7971H11.6459C11.8567 11.7971 12.0278 11.9682 12.0278 12.179C12.0278 12.3898 11.8567 12.5608 11.6455 12.5608Z" fill="white"/>
<path d="M9.00881 15.3755H2.95217C2.74138 15.3755 2.57031 15.2045 2.57031 14.9937C2.57031 14.7829 2.74138 14.6118 2.95217 14.6118H9.00881C9.2196 14.6118 9.39067 14.7829 9.39067 14.9937C9.39067 15.2045 9.2196 15.3755 9.00881 15.3755Z" fill="white"/>
</svg>
