<svg width="20" height="21" viewBox="0 0 20 21" fill="none" xmlns="http://www.w3.org/2000/svg">
<path d="M8.9034 0.0604458C6.35066 0.357397 3.98026 1.62335 2.34963 3.57176C-0.187479 6.59858 -0.713656 10.7715 0.984697 14.3193C1.99016 16.4084 3.59474 18.013 5.67861 19.0132C9.23161 20.7168 13.4046 20.1906 16.4314 17.6535C18.6767 15.778 20 12.9335 20 10.0057C20 7.07787 18.6767 4.23339 16.4314 2.35791C14.3475 0.607462 11.5499 -0.241714 8.9034 0.0604458ZM14.1652 4.37926V5.21281H10.0235H5.88179V4.37926V3.54572H10.0235H14.1652V4.37926ZM15.9365 10.9435V15.007H9.99743H4.0584V10.9435V6.87991H9.99743H15.9365V10.9435Z" fill="black"/>
<path d="M7.08203 9.38107V10.4751H9.99945H12.9169V9.38107V8.28704H9.99945H7.08203V9.38107Z" fill="black"/>
</svg>
