<svg width="8" height="16" viewBox="0 0 8 16" fill="none" xmlns="http://www.w3.org/2000/svg">
<path d="M7.55556 4H0.444444C0.32657 4 0.213524 4.04863 0.130175 4.13518C0.0468253 4.22174 0 4.33913 0 4.46154C0 4.58395 0.0468253 4.70134 0.130175 4.7879C0.213524 4.87445 0.32657 4.92308 0.444444 4.92308H0.888889V12.7692C0.888889 13.6261 1.21667 14.4478 1.80011 15.0537C2.38356 15.6596 3.17488 16 4 16C4.82512 16 5.61644 15.6596 6.19989 15.0537C6.78333 14.4478 7.11111 13.6261 7.11111 12.7692V4.92308H7.55556C7.67343 4.92308 7.78648 4.87445 7.86983 4.7879C7.95318 4.70134 8 4.58395 8 4.46154C8 4.33913 7.95318 4.22174 7.86983 4.13518C7.78648 4.04863 7.67343 4 7.55556 4ZM6.22222 12.7692C6.22222 13.3813 5.9881 13.9682 5.57135 14.401C5.1546 14.8338 4.58937 15.0769 4 15.0769C3.41063 15.0769 2.8454 14.8338 2.42865 14.401C2.0119 13.9682 1.77778 13.3813 1.77778 12.7692V8.15385C1.93295 8.15232 2.08682 8.18346 2.23008 8.2454C2.37334 8.30733 2.50304 8.39877 2.61133 8.5142C2.98984 8.87606 3.48551 9.07692 4 9.07692C4.51448 9.07692 5.01016 8.87606 5.38866 8.5142C5.49696 8.39877 5.62665 8.30733 5.76991 8.2454C5.91318 8.18346 6.06705 8.15232 6.22222 8.15385V12.7692ZM6.22222 7.23077C5.707 7.22663 5.20991 7.42806 4.83355 7.7935C4.72437 7.90769 4.5945 7.99831 4.45145 8.06016C4.30839 8.122 4.15496 8.15384 4 8.15384C3.84504 8.15384 3.69161 8.122 3.54855 8.06016C3.40549 7.99831 3.27562 7.90769 3.16644 7.7935C2.79009 7.42807 2.293 7.22663 1.77778 7.23077V4.92308H6.22222V7.23077Z" fill="black"/>
<path d="M7.75001 1.07366C7.69315 1.03757 7.63036 1.01414 7.56524 1.00471C7.50011 0.995281 7.43394 1.00004 7.37049 1.01871C7.30705 1.03738 7.24758 1.0696 7.19548 1.11353C7.14339 1.15746 7.09969 1.21223 7.06689 1.27471L6.06685 3.17665C6.00063 3.30277 5.98273 3.4526 6.01709 3.59321C6.05145 3.73381 6.13526 3.85368 6.25009 3.92646C6.36492 3.99924 6.50138 4.01897 6.62945 3.98131C6.75753 3.94366 6.86675 3.8517 6.93309 3.72565L7.93313 1.82371C7.99935 1.69757 8.01727 1.54772 7.98294 1.40708C7.9486 1.26644 7.86483 1.14652 7.75001 1.07366Z" fill="black"/>
<path d="M0.750224 4C0.794087 3.99994 0.837169 3.97453 0.875144 3.92632C0.913119 3.87811 0.944648 3.8088 0.966564 3.72536C0.988481 3.64192 1.00001 3.54728 1 3.45095C0.999988 3.35462 0.988433 3.25999 0.966495 3.17657L0.466579 1.27481C0.450175 1.21232 0.428327 1.15755 0.402282 1.11362C0.376237 1.06968 0.346506 1.03745 0.314787 1.01876C0.283068 1.00007 0.249983 0.995283 0.217422 1.00468C0.184861 1.01408 0.153462 1.03748 0.125019 1.07353C0.0965766 1.10959 0.0716474 1.1576 0.051656 1.21482C0.0316646 1.27204 0.0170027 1.33735 0.00850798 1.40702C1.32878e-05 1.47669 -0.00214782 1.54936 0.00214827 1.62086C0.00644437 1.69237 0.0171135 1.76131 0.0335459 1.82376L0.533463 3.72552C0.555428 3.80907 0.587028 3.87842 0.625082 3.92661C0.663135 3.97479 0.706298 4.00011 0.750224 4Z" fill="black"/>
<path d="M3.5 3C3.63261 3 3.75979 2.94732 3.85355 2.85355C3.94732 2.75979 4 2.63261 4 2.5V0.5C4 0.367392 3.94732 0.240215 3.85355 0.146447C3.75979 0.0526784 3.63261 0 3.5 0C3.36739 0 3.24021 0.0526784 3.14645 0.146447C3.05268 0.240215 3 0.367392 3 0.5V2.5C3 2.63261 3.05268 2.75979 3.14645 2.85355C3.24021 2.94732 3.36739 3 3.5 3Z" fill="black"/>
</svg>
