<svg width="16" height="15" viewBox="0 0 16 15" fill="none" xmlns="http://www.w3.org/2000/svg">
<path d="M3.21679 7.7586C3.44919 8.05691 3.6816 8.35696 3.914 8.65527C4.28342 9.13221 4.65457 9.60916 5.02399 10.0861C5.10897 10.1954 5.19396 10.3046 5.27894 10.4156C5.33964 10.4937 5.49053 10.5474 5.58592 10.5422C5.70559 10.537 5.80272 10.4937 5.8929 10.4156C6.08889 10.2422 6.2866 10.0688 6.48259 9.89533C6.95433 9.47909 7.42608 9.0611 7.89782 8.64486C8.46669 8.14189 9.03383 7.64067 9.6027 7.1377C10.0935 6.70411 10.5843 6.26879 11.0769 5.8352C11.3162 5.62361 11.5643 5.41895 11.7967 5.19869C11.8001 5.19522 11.8036 5.19349 11.8071 5.19002C11.977 5.03913 11.9718 4.72868 11.8071 4.57606C11.625 4.40956 11.3752 4.41476 11.1931 4.57606C10.9971 4.74949 10.7994 4.92293 10.6034 5.09636C10.1317 5.51261 9.65993 5.93059 9.18818 6.34683C8.61931 6.8498 8.05218 7.35103 7.48331 7.85399C6.99249 8.28758 6.50166 8.7229 6.00911 9.15649C5.76976 9.36809 5.52175 9.57274 5.28935 9.793C5.28588 9.79647 5.28241 9.79821 5.27894 9.80168C5.4836 9.80168 5.68825 9.80168 5.8929 9.80168C5.6605 9.50337 5.4281 9.20332 5.19569 8.90501C4.82627 8.42806 4.45512 7.95112 4.0857 7.47417C4.00072 7.3649 3.91574 7.25564 3.83075 7.14464C3.76832 7.06312 3.6209 7.01803 3.52377 7.01803C3.41798 7.01803 3.28963 7.06486 3.21679 7.14464C3.14048 7.22789 3.08498 7.33542 3.09018 7.45162C3.09538 7.57476 3.14221 7.66321 3.21679 7.7586Z" fill="#FFBA03"/>
<path d="M14.1395 7.50329C14.1395 7.68887 14.1325 7.87618 14.1169 8.06176C14.11 8.15368 14.1013 8.2456 14.0909 8.33578C14.0892 8.35486 14.0857 8.37567 14.084 8.39475C14.0735 8.48494 14.0996 8.28375 14.0874 8.37394C14.0805 8.42424 14.0718 8.47627 14.0649 8.52656C14.0059 8.88558 13.9209 9.23938 13.8082 9.58626C13.7527 9.75449 13.6903 9.92099 13.6243 10.0858C13.6139 10.1118 13.5914 10.1586 13.6417 10.0459C13.633 10.0667 13.6243 10.0875 13.6139 10.11C13.5949 10.1517 13.5775 10.195 13.5567 10.2366C13.5186 10.3199 13.4787 10.4031 13.437 10.4847C13.2775 10.7968 13.0971 11.0969 12.8925 11.3831C12.8439 11.4507 12.7936 11.5166 12.7433 11.5842C12.83 11.4646 12.7468 11.579 12.7277 11.6033C12.6947 11.6449 12.6618 11.6866 12.6271 11.7265C12.5161 11.86 12.3982 11.9901 12.2785 12.115C12.1571 12.2398 12.0322 12.3612 11.9021 12.4757C11.8397 12.5312 11.7773 12.585 11.7131 12.6387C11.6836 12.663 11.6541 12.6873 11.6246 12.7098C11.6073 12.7237 11.5899 12.7376 11.5709 12.7515C11.4807 12.8226 11.6281 12.7081 11.5691 12.7532C11.2899 12.9631 10.9968 13.1556 10.6916 13.3255C10.5372 13.4105 10.3794 13.4886 10.2198 13.5631C10.1816 13.5805 10.1435 13.5978 10.1036 13.6152C10.0863 13.6221 10.0689 13.6308 10.0498 13.6377C10.1747 13.5822 10.0967 13.6186 10.0689 13.629C9.98393 13.6637 9.89721 13.6967 9.8105 13.7296C9.47403 13.8528 9.12716 13.9482 8.77682 14.0193C8.69184 14.0366 8.60685 14.0522 8.52013 14.0661C8.47331 14.073 8.42648 14.08 8.37965 14.0869C8.30854 14.0973 8.41954 14.0817 8.42474 14.0817C8.39353 14.0852 8.36231 14.0904 8.32936 14.0939C8.14551 14.1147 7.96167 14.1285 7.77609 14.1355C7.40494 14.1494 7.03205 14.1337 6.66264 14.0904C6.63836 14.0869 6.61581 14.0834 6.59153 14.0817C6.73201 14.0956 6.64356 14.0887 6.61234 14.0852C6.57245 14.08 6.53429 14.073 6.4944 14.0678C6.40075 14.0522 6.30709 14.0366 6.21517 14.0175C6.03827 13.9811 5.8631 13.9395 5.6914 13.8909C5.51969 13.8424 5.34973 13.7869 5.18323 13.7262C5.10345 13.6967 5.0254 13.6655 4.94562 13.6342C4.91787 13.6221 4.83983 13.5874 4.9647 13.6429C4.94389 13.6342 4.92308 13.6256 4.90053 13.6152C4.8589 13.5961 4.81555 13.5787 4.77392 13.5579C4.4548 13.4105 4.14782 13.2406 3.85471 13.048C3.70902 12.9526 3.56854 12.8486 3.42806 12.7445C3.54946 12.833 3.41765 12.7359 3.3899 12.7133C3.35695 12.6873 3.32573 12.6613 3.29278 12.6335C3.2234 12.5746 3.15403 12.5156 3.08639 12.4549C2.8245 12.219 2.57996 11.9641 2.35623 11.6935C2.33194 11.664 2.30766 11.6345 2.28512 11.6051C2.27124 11.5877 2.25737 11.5686 2.24349 11.5513C2.18973 11.4836 2.30766 11.6363 2.25563 11.5669C2.20013 11.4941 2.14637 11.4212 2.09434 11.3466C1.99374 11.2044 1.89836 11.057 1.80817 10.9061C1.71798 10.7552 1.633 10.6009 1.55495 10.4448C1.5168 10.3702 1.48038 10.2939 1.44569 10.2176C1.43008 10.1829 1.41447 10.1482 1.39886 10.1118C1.39019 10.091 1.38152 10.0701 1.37111 10.0476C1.43008 10.1794 1.38325 10.0736 1.37111 10.0441C1.23756 9.71286 1.1283 9.37293 1.04505 9.02606C1.00343 8.84915 0.968739 8.67225 0.94099 8.49361C0.934052 8.45372 0.928849 8.41557 0.923646 8.37568C0.911506 8.28549 0.937521 8.48667 0.927115 8.39649C0.923646 8.37221 0.921912 8.34966 0.918443 8.32538C0.908037 8.22999 0.897631 8.1346 0.890693 8.03921C0.862944 7.66806 0.864678 7.29344 0.894162 6.92228C0.9011 6.83383 0.909771 6.74711 0.920177 6.6604C0.923646 6.63611 0.927115 6.61357 0.928849 6.58929C0.916709 6.71936 0.920178 6.65346 0.925381 6.62224C0.932318 6.57194 0.94099 6.51991 0.947927 6.46962C0.977411 6.29098 1.01383 6.11407 1.05546 5.9389C1.14044 5.59203 1.25317 5.25383 1.38672 4.92257C1.41967 4.84105 1.34336 5.02143 1.37805 4.94165C1.38672 4.92083 1.39713 4.90002 1.4058 4.87747C1.42141 4.84279 1.43702 4.8081 1.45263 4.77341C1.49078 4.69016 1.53067 4.60691 1.5723 4.5254C1.65208 4.36931 1.73706 4.21495 1.82725 4.0658C1.91743 3.91664 2.01456 3.77095 2.11515 3.627C2.16371 3.55936 2.21401 3.49346 2.2643 3.42582C2.17585 3.54722 2.27298 3.41541 2.29552 3.38766C2.32327 3.35297 2.35276 3.31655 2.38224 3.28187C2.60597 3.01477 2.84878 2.76329 3.10894 2.53262C3.17137 2.47712 3.23381 2.42336 3.29798 2.36959C3.33267 2.34011 3.36909 2.31236 3.40378 2.28288C3.42112 2.269 3.4402 2.25513 3.45754 2.24125C3.52518 2.18749 3.37256 2.30542 3.44193 2.25339C3.58242 2.1476 3.7229 2.047 3.87032 1.95161C4.16516 1.76083 4.47214 1.59087 4.793 1.44518C4.83462 1.4261 4.87625 1.40702 4.91961 1.38968C4.94736 1.37754 5.02887 1.34806 4.90053 1.39662C4.91787 1.38968 4.93522 1.38274 4.95429 1.37407C5.03581 1.34112 5.11906 1.30817 5.20231 1.27868C5.37401 1.21625 5.54744 1.16075 5.72261 1.11218C5.89605 1.06362 6.07122 1.022 6.24813 0.98731C6.33658 0.969966 6.42676 0.954357 6.51695 0.940482C6.55684 0.933545 6.595 0.928342 6.63489 0.923139C6.72507 0.910998 6.52389 0.937013 6.61407 0.926607C6.64529 0.923139 6.67651 0.91967 6.70946 0.914467C7.07888 0.872842 7.45177 0.860702 7.82292 0.876311C8.00676 0.884983 8.19061 0.898857 8.37445 0.921404C8.39006 0.923138 8.40567 0.926607 8.42128 0.926607C8.28079 0.912732 8.36924 0.91967 8.40046 0.923139C8.44729 0.930076 8.49412 0.937013 8.54095 0.943951C8.6346 0.95956 8.72652 0.976904 8.82018 0.995982C9.17052 1.06882 9.51566 1.16768 9.85212 1.29082C9.9319 1.32031 10.0099 1.35152 10.088 1.38448C10.1695 1.41743 9.98914 1.34112 10.0689 1.37581C10.0828 1.38274 10.0967 1.38795 10.1105 1.39488C10.1591 1.4157 10.2094 1.43824 10.258 1.46079C10.4175 1.53537 10.5736 1.61515 10.728 1.70013C10.8806 1.78511 11.0297 1.87704 11.1772 1.97243C11.2465 2.01925 11.3159 2.06608 11.3836 2.11464C11.4182 2.13892 11.4512 2.1632 11.4842 2.18749C11.5136 2.21003 11.6489 2.31756 11.5327 2.22217C11.8033 2.44244 12.0652 2.66964 12.308 2.92112C12.4276 3.04773 12.5438 3.1778 12.6548 3.31135C12.6843 3.34604 12.7121 3.38246 12.7398 3.41715C12.7485 3.42929 12.7589 3.44143 12.7676 3.45357C12.8213 3.52121 12.7034 3.36858 12.7554 3.43796C12.8109 3.5108 12.8647 3.58364 12.9167 3.65822C13.1179 3.94439 13.2983 4.24617 13.4544 4.56009C13.4925 4.63466 13.529 4.71098 13.5636 4.78729C13.5827 4.82891 13.6018 4.87054 13.6191 4.9139C13.6243 4.92604 13.6556 4.99888 13.6243 4.92604C13.5914 4.84973 13.6313 4.94511 13.6382 4.95899C13.7041 5.12375 13.7648 5.29025 13.8203 5.46022C13.9296 5.80362 14.0128 6.15396 14.0683 6.51124C14.0753 6.55807 14.0822 6.6049 14.0892 6.65172C14.0666 6.50083 14.0874 6.64305 14.0909 6.67947C14.1013 6.76619 14.11 6.85464 14.1169 6.9431C14.1308 7.13041 14.1377 7.31772 14.1395 7.50329C14.1395 7.73049 14.3389 7.94729 14.573 7.93688C14.8072 7.92648 15.0066 7.7461 15.0066 7.50329C15.0032 5.96839 14.5314 4.43868 13.64 3.18648C12.7468 1.93427 11.505 0.980372 10.0602 0.447924C8.59818 -0.0897266 6.95401 -0.141757 5.45726 0.28316C4.01601 0.692469 2.69443 1.54577 1.74053 2.70259C0.745007 3.9097 0.14492 5.38391 0.0217802 6.94483C-0.0978905 8.48494 0.278465 10.0597 1.07974 11.3813C1.85326 12.6561 3.01355 13.7054 4.37502 14.3211C5.83188 14.9801 7.45697 15.1657 9.02657 14.85C10.5025 14.5517 11.8813 13.7817 12.9202 12.6942C13.9643 11.6033 14.6788 10.1933 14.9095 8.69827C14.9702 8.3011 15.0066 7.90393 15.0066 7.50156C15.0066 7.27436 14.8072 7.05756 14.573 7.06797C14.3372 7.08011 14.1395 7.26048 14.1395 7.50329Z" fill="#FFBA03"/>
</svg>
