<svg width="15" height="11" viewBox="0 0 15 11" fill="none" xmlns="http://www.w3.org/2000/svg">
<path d="M13.5 11C13.8977 10.9995 14.279 10.8414 14.5602 10.5602C14.8414 10.279 14.9995 9.89769 15 9.5V1.5C14.9995 1.10231 14.8414 0.721044 14.5602 0.439837C14.279 0.15863 13.8977 0.000449947 13.5 0H1.5C1.10231 0.000449947 0.721044 0.15863 0.439837 0.439837C0.15863 0.721044 0.000449947 1.10231 0 1.5V9.5C0.000449947 9.89769 0.15863 10.279 0.439837 10.5602C0.721044 10.8414 1.10231 10.9995 1.5 11H13.5ZM1 9.5V1.5C1.00016 1.36744 1.05289 1.24036 1.14662 1.14662C1.24036 1.05289 1.36744 1.00016 1.5 1H13.5C13.6326 1.00016 13.7596 1.05289 13.8534 1.14662C13.9471 1.24036 13.9998 1.36744 14 1.5V9.5C13.9998 9.63256 13.9471 9.75964 13.8534 9.85338C13.7596 9.94711 13.6326 9.99984 13.5 10H1.5C1.36744 9.99984 1.24036 9.94711 1.14662 9.85338C1.05289 9.75964 1.00016 9.63256 1 9.5Z" fill="black"/>
<path d="M7.25221 6.94737C7.32768 6.98186 7.41309 7 7.5 7C7.58691 7 7.67232 6.98186 7.74779 6.94737L14.7419 3.74964C14.7999 3.72403 14.8509 3.68946 14.892 3.64793C14.9331 3.6064 14.9635 3.55875 14.9814 3.50774C14.9993 3.45673 15.0043 3.40338 14.9962 3.35079C14.9881 3.29821 14.967 3.24744 14.9342 3.20144C14.9014 3.15543 14.8574 3.11511 14.8049 3.08282C14.7524 3.05053 14.6924 3.02691 14.6284 3.01334C14.5644 2.99977 14.4976 2.99651 14.4321 3.00376C14.3665 3.01101 14.3033 3.02862 14.2463 3.05557L7.5 6.1401L0.753696 3.05557C0.696684 3.02862 0.633545 3.01101 0.567949 3.00376C0.502353 2.99651 0.43561 2.99977 0.371601 3.01334C0.307592 3.02691 0.247594 3.05053 0.195096 3.08282C0.142597 3.11511 0.0986463 3.15543 0.0657983 3.20144C0.0329503 3.24744 0.0118608 3.29821 0.00375603 3.35079C-0.00434871 3.40338 0.000693023 3.45673 0.0185881 3.50774C0.0364832 3.55875 0.0668746 3.6064 0.107995 3.64793C0.149116 3.68946 0.200144 3.72403 0.258115 3.74964L7.25221 6.94737Z" fill="black"/>
</svg>
