<svg width="16" height="23" viewBox="0 0 16 23" fill="none" xmlns="http://www.w3.org/2000/svg">
<path d="M15.1548 18.118L10.8531 10.3824L10.8841 6.8183H11.473C11.6373 6.8183 11.795 6.75299 11.9112 6.63675C12.0275 6.52051 12.0928 6.36285 12.0928 6.19845C12.0928 6.03406 12.0275 5.8764 11.9112 5.76016C11.795 5.64392 11.6373 5.57861 11.473 5.57861H4.03486C3.87047 5.57861 3.71281 5.64392 3.59657 5.76016C3.48032 5.8764 3.41502 6.03406 3.41502 6.19845C3.41502 6.36285 3.48032 6.52051 3.59657 6.63675C3.71281 6.75299 3.87047 6.8183 4.03486 6.8183H4.62371L4.6547 10.3824L0.353002 18.118C0.115066 18.5484 -0.00651174 19.0335 0.000268863 19.5252C0.00704947 20.017 0.141954 20.4985 0.391667 20.9222C0.64138 21.3459 0.997269 21.6971 1.4242 21.9413C1.85114 22.1854 2.33436 22.314 2.82617 22.3143H12.6816C13.1735 22.314 13.6567 22.1854 14.0836 21.9413C14.5105 21.6971 14.8664 21.3459 15.1161 20.9222C15.3659 20.4985 15.5008 20.017 15.5075 19.5252C15.5143 19.0335 15.3927 18.5484 15.1548 18.118ZM5.8138 10.8411C5.8671 10.7465 5.89487 10.6397 5.89438 10.5311L5.86339 6.8183H9.64442L9.61343 10.5311C9.61294 10.6397 9.64071 10.7465 9.69401 10.8411L11.9068 14.8266C10.6591 14.7925 9.42118 14.5945 8.22499 14.2378C6.94053 13.8634 5.61386 13.6531 4.2766 13.6118L5.8138 10.8411Z" fill="white"/>
<path d="M5.89203 3.71862C6.57668 3.71862 7.13171 3.1636 7.13171 2.47894C7.13171 1.79428 6.57668 1.23926 5.89203 1.23926C5.20737 1.23926 4.65234 1.79428 4.65234 2.47894C4.65234 3.1636 5.20737 3.71862 5.89203 3.71862Z" fill="white"/>
<path d="M9.92195 4.33902C10.4354 4.33902 10.8517 3.92275 10.8517 3.40925C10.8517 2.89576 10.4354 2.47949 9.92195 2.47949C9.40846 2.47949 8.99219 2.89576 8.99219 3.40925C8.99219 3.92275 9.40846 4.33902 9.92195 4.33902Z" fill="white"/>
<path d="M8.99093 1.23968C9.33326 1.23968 9.61078 0.96217 9.61078 0.619841C9.61078 0.277512 9.33326 0 8.99093 0C8.64861 0 8.37109 0.277512 8.37109 0.619841C8.37109 0.96217 8.64861 1.23968 8.99093 1.23968Z" fill="white"/>
</svg>
