<svg width="18" height="16" viewBox="0 0 18 16" fill="none" xmlns="http://www.w3.org/2000/svg">
<path d="M9.36215 0C5.77814 0 2.72907 2.30121 1.6652 5.5L0.915198 4.16667C0.868784 4.08117 0.797727 4.01162 0.711261 3.96703C0.624795 3.92245 0.526917 3.90491 0.43035 3.91668C0.350081 3.92577 0.273354 3.95476 0.207139 4.00104C0.140924 4.04731 0.0873185 4.10939 0.0511919 4.18164C0.0150653 4.25389 -0.00243751 4.33404 0.000273099 4.41477C0.00298371 4.49551 0.0258219 4.57429 0.0667133 4.64395L1.40005 7.02274C1.46097 7.13258 1.56214 7.21449 1.68225 7.25123C1.80236 7.28797 1.93204 7.27667 2.04399 7.21971L4.4152 6.00759C4.4746 5.98036 4.52788 5.94141 4.57185 5.89307C4.61581 5.84473 4.64956 5.788 4.67105 5.7263C4.69254 5.66459 4.70134 5.59917 4.69692 5.53397C4.69249 5.46878 4.67494 5.40516 4.64531 5.34692C4.61568 5.28868 4.57458 5.23703 4.52449 5.19508C4.4744 5.15312 4.41634 5.12172 4.35381 5.10276C4.29128 5.0838 4.22556 5.07767 4.1606 5.08475C4.09564 5.09183 4.03279 5.11197 3.9758 5.14395L2.56671 5.86364C3.48375 3.03057 6.17332 0.969697 9.36215 0.969697C13.3098 0.969697 16.491 4.11505 16.491 8C16.491 11.8849 13.3098 15.0303 9.36215 15.0303C5.98486 15.0303 3.16613 12.7155 2.42277 9.62121C2.41414 9.55392 2.39147 9.4892 2.35625 9.43121C2.32102 9.37323 2.27402 9.32328 2.21829 9.28459C2.16255 9.24591 2.09931 9.21936 2.03267 9.20665C1.96603 9.19394 1.89746 9.19535 1.83139 9.2108C1.76533 9.22626 1.70325 9.25539 1.64915 9.29634C1.59506 9.33729 1.55016 9.38913 1.51736 9.44852C1.48456 9.50791 1.46459 9.57354 1.45873 9.64113C1.45288 9.70872 1.46128 9.77678 1.48338 9.84092C2.33109 13.3696 5.54131 16 9.36215 16C13.8269 16 17.4607 12.416 17.4607 8C17.4607 3.58397 13.8269 0 9.36215 0ZM9.40761 3.6288C9.28711 3.64205 9.17594 3.69994 9.09601 3.79109C9.01609 3.88223 8.9732 4.00001 8.9758 4.12121V8C8.97576 8.07273 8.99208 8.14454 9.02355 8.21011C9.05503 8.27568 9.10085 8.33333 9.15762 8.37879L11.5819 10.3182C11.6316 10.358 11.6887 10.3876 11.7499 10.4053C11.8111 10.423 11.8751 10.4286 11.9385 10.4215C12.0018 10.4145 12.0631 10.395 12.1189 10.3643C12.1747 10.3336 12.2239 10.2922 12.2637 10.2424C12.3035 10.1927 12.3331 10.1356 12.3508 10.0744C12.3685 10.0132 12.374 9.94914 12.367 9.88583C12.36 9.82252 12.3405 9.7612 12.3098 9.7054C12.2791 9.6496 12.2377 9.6004 12.1879 9.56061L9.9455 7.76517V4.12121C9.94699 4.05219 9.93371 3.98365 9.90658 3.92017C9.87944 3.85669 9.83906 3.79974 9.78814 3.75312C9.73721 3.70651 9.67692 3.6713 9.6113 3.64986C9.54568 3.62842 9.47623 3.62124 9.40761 3.6288Z" fill="white"/>
</svg>
