<svg width="24" height="23" viewBox="0 0 24 23" fill="none" xmlns="http://www.w3.org/2000/svg">
<path d="M3.05078 10.3464C3.05078 9.76566 2.56809 9.29492 1.97266 9.29492C1.37722 9.29492 0.894531 9.76566 0.894531 10.3464V13.0187C0.894531 13.5994 1.37722 14.0702 1.97266 14.0702C2.56809 14.0702 3.05078 13.5994 3.05078 13.0187V10.3464Z" fill="white"/>
<path d="M6.87891 6.90739C6.87891 6.3267 6.39621 5.85596 5.80078 5.85596C5.20535 5.85596 4.72266 6.3267 4.72266 6.90739V16.4579C4.72266 17.0385 5.20535 17.5093 5.80078 17.5093C6.39621 17.5093 6.87891 17.0385 6.87891 16.4579V6.90739Z" fill="white"/>
<path d="M10.707 9.82072C10.707 9.24003 10.2243 8.76929 9.62891 8.76929C9.03347 8.76929 8.55078 9.24003 8.55078 9.82072V13.5445C8.55078 14.1252 9.03347 14.596 9.62891 14.596C10.2243 14.596 10.707 14.1252 10.707 13.5445V9.82072Z" fill="white"/>
<path d="M23.1055 10.3464C23.1055 9.76566 22.6228 9.29492 22.0273 9.29492C21.4319 9.29492 20.9492 9.76566 20.9492 10.3464V13.0187C20.9492 13.5994 21.4319 14.0702 22.0273 14.0702C22.6228 14.0702 23.1055 13.5994 23.1055 13.0187V10.3464Z" fill="white"/>
<path d="M19.2773 7.61564C19.2773 7.03495 18.7947 6.56421 18.1992 6.56421C17.6038 6.56421 17.1211 7.03495 17.1211 7.61564V15.7496C17.1211 16.3303 17.6038 16.801 18.1992 16.801C18.7947 16.801 19.2773 16.3303 19.2773 15.7496V7.61564Z" fill="white"/>
<path d="M14.9922 3.65446C14.9922 3.07377 14.5095 2.60303 13.9141 2.60303C13.3186 2.60303 12.8359 3.07377 12.8359 3.65446V19.7143C12.8359 20.295 13.3186 20.7657 13.9141 20.7657C14.5095 20.7657 14.9922 20.295 14.9922 19.7143V3.65446Z" fill="white"/>
</svg>
