<svg width="18" height="15" viewBox="0 0 18 15" fill="none" xmlns="http://www.w3.org/2000/svg">
<path fill-rule="evenodd" clip-rule="evenodd" d="M1.74646 11.4004C0.781915 9.7298 1.3542 7.59364 3.02488 6.62907L11.4822 1.74623C13.1528 0.781712 15.2891 1.35424 16.2535 3.02477C17.2181 4.6954 16.6458 6.83156 14.9751 7.79613L6.51779 12.679C4.8472 13.6435 2.71094 13.071 1.74646 11.4004ZM9.22906 5.39691C8.9456 5.16201 9.01681 4.91692 9.12613 4.81737C9.29992 4.6591 12.4566 2.84743 12.7336 2.73459C13.0106 2.62175 13.4867 2.55202 13.6036 2.55194C14.3971 2.55141 14.9083 2.95371 15.0415 2.89995C15.1748 2.84619 14.737 2.22331 13.7528 2.02172C12.7686 1.82014 12.0699 2.2595 12.0699 2.2595C12.0699 2.2595 11.3179 2.69368 9.93881 3.4899C8.55973 4.28611 3.42122 7.25283 3.42122 7.25283C2.10562 8.01239 1.65488 9.69467 2.41436 11.0101C3.17389 12.3257 4.8562 12.7763 6.17172 12.0168C6.17172 12.0168 9.58799 10.0444 10.265 9.65354C10.9421 9.26265 10.9455 8.67879 10.3418 9.02729C9.73822 9.37579 7.87289 10.4749 6.27687 11.3963C4.68084 12.3178 3.42007 11.2597 3.25568 11.1179C3.0913 10.9761 2.41392 10.0994 3.16919 10.5069C3.92446 10.9143 4.79276 11.1144 5.57207 10.6645C6.35139 10.2145 10.0176 8.11086 10.4555 7.79407C10.8935 7.47728 9.51251 5.63181 9.22906 5.39691Z" fill="black"/>
</svg>
