<svg width="15" height="15" viewBox="0 0 15 15" fill="none" xmlns="http://www.w3.org/2000/svg">
<rect width="15" height="15" rx="7.5" fill="#FFBA03"/>
<path d="M7.5 9.34488C7.94739 9.34437 8.37631 9.16982 8.69267 8.85952C9.00902 8.54923 9.18698 8.12853 9.1875 7.68971V4.1035C9.1875 4.03034 9.15787 3.96017 9.10512 3.90843C9.05238 3.8567 8.98084 3.82764 8.90625 3.82764H6.09375C6.01916 3.82764 5.94762 3.8567 5.89488 3.90843C5.84213 3.96017 5.8125 4.03034 5.8125 4.1035V7.68971C5.81302 8.12853 5.99098 8.54923 6.30733 8.85952C6.62369 9.16982 7.05261 9.34437 7.5 9.34488ZM6.375 4.37936H8.625V7.68971C8.625 7.98236 8.50647 8.26302 8.2955 8.46996C8.08452 8.6769 7.79837 8.79315 7.5 8.79315C7.20163 8.79315 6.91548 8.6769 6.7045 8.46996C6.49353 8.26302 6.375 7.98236 6.375 7.68971V4.37936Z" fill="white"/>
<path d="M9.75 6.58594C9.67541 6.58594 9.60387 6.615 9.55113 6.66674C9.49838 6.71847 9.46875 6.78864 9.46875 6.8618V7.68939C9.46875 8.20153 9.26133 8.69269 8.89212 9.05483C8.5229 9.41697 8.02215 9.62042 7.5 9.62042C6.97785 9.62042 6.4771 9.41697 6.10788 9.05483C5.73867 8.69269 5.53125 8.20153 5.53125 7.68939V6.8618C5.53125 6.78864 5.50162 6.71847 5.44887 6.66674C5.39613 6.615 5.32459 6.58594 5.25 6.58594C5.17541 6.58594 5.10387 6.615 5.05113 6.66674C4.99838 6.71847 4.96875 6.78864 4.96875 6.8618V7.68939C4.96966 8.29974 5.19947 8.88844 5.61441 9.3433C6.02935 9.79816 6.6004 10.0874 7.21875 10.1559V10.448H6.65625C6.58166 10.448 6.51012 10.4771 6.45738 10.5288C6.40463 10.5805 6.375 10.6507 6.375 10.7239C6.375 10.797 6.40463 10.8672 6.45738 10.9189C6.51012 10.9707 6.58166 10.9997 6.65625 10.9997H8.34375C8.41834 10.9997 8.48988 10.9707 8.54262 10.9189C8.59537 10.8672 8.625 10.797 8.625 10.7239C8.625 10.6507 8.59537 10.5805 8.54262 10.5288C8.48988 10.4771 8.41834 10.448 8.34375 10.448H7.78125V10.1559C8.3996 10.0874 8.97065 9.79816 9.38559 9.3433C9.80053 8.88844 10.0303 8.29974 10.0312 7.68939V6.8618C10.0312 6.78864 10.0016 6.71847 9.94887 6.66674C9.89613 6.615 9.82459 6.58594 9.75 6.58594Z" fill="white"/>
</svg>
